<svg width="51" height="50" viewBox="0 0 51 50" fill="none" xmlns="http://www.w3.org/2000/svg">
<path d="M45.8498 4.92182C48.2944 5.25517 49.2389 6.0191 49.1834 7.57475C49.1278 9.1165 48.1416 9.86654 45.9054 10.0332C45.8915 10.1582 45.8637 10.2832 45.8637 10.4082C45.8637 10.5194 45.8776 10.6305 45.8915 10.8249C46.4332 10.8249 46.961 10.811 47.4888 10.8249C48.975 10.8666 50.0306 11.8944 50.0306 13.3806C50.0445 22.2284 50.0445 31.0622 50.0306 39.9099C50.0306 41.4934 48.9611 42.4934 47.3083 42.4934C41.294 42.4934 35.2659 42.4934 29.2517 42.4934C28.9739 42.4934 28.71 42.4934 28.4044 42.4934C28.4044 43.3407 28.4044 44.1185 28.4044 44.9935C29.6545 44.9935 30.8906 44.9935 32.1268 44.9935C34.1964 44.9935 34.1964 44.9935 34.1964 47.0492C34.1964 47.6743 34.2103 48.2993 34.1964 48.9243C34.1825 49.7438 33.9047 49.9938 33.0297 49.9938C28.2377 49.9938 23.4458 49.9938 18.6538 49.9938C18.0566 49.9938 17.4454 50.0077 16.8482 49.9938C16.1815 49.9799 15.8759 49.6883 15.862 49.0077C15.8481 48.0354 15.8481 47.0631 15.862 46.0908C15.8759 45.2713 16.1537 44.9935 17.0149 44.9935C18.5427 44.9935 20.0706 44.9935 21.6401 44.9935C21.6401 44.1602 21.6401 43.3685 21.6401 42.4934C21.3623 42.4934 21.0984 42.4934 20.8206 42.4934C14.8758 42.4934 8.91718 42.4934 2.97239 42.4934C0.916719 42.4934 0 41.5628 0 39.5071C0 30.965 0 22.4228 0 13.8807C0 11.7 0.88894 10.8249 3.08351 10.811C3.40297 10.811 3.73632 10.811 4.1669 10.811C4.1669 10.5471 4.1669 10.2971 4.1669 10.061C4.1669 7.93588 4.1669 5.79687 4.1669 3.67175C4.1669 2.75503 4.4447 2.47723 5.36142 2.47723C10.6673 2.47723 15.9592 2.47723 21.2651 2.47723C22.2374 2.47723 22.5013 2.72725 22.5013 3.69953C22.5013 6.03299 22.5013 8.36646 22.5013 10.7555C24.168 10.7555 25.7931 10.7555 27.4599 10.7555C27.4599 10.5332 27.4599 10.311 27.4599 9.97766C26.9738 9.97766 26.4876 9.99155 25.9876 9.97766C25.3209 9.96377 25.0153 9.67209 25.0014 8.99149C24.9875 7.97755 24.9875 6.94971 25.0014 5.93576C25.0014 5.32462 25.3348 4.99127 25.9459 4.97738C26.4321 4.96349 26.9182 4.97738 27.3766 4.97738C27.4321 4.90793 27.4877 4.88015 27.4877 4.83848C27.5988 3.33839 27.6405 3.31061 29.1406 3.31061C29.5989 3.31061 30.0712 3.26895 30.5295 3.31061C33.1547 3.56063 35.6131 2.9217 38.0577 2.08832C40.2245 1.35217 42.433 0.727134 44.6137 0.0743192C45.3776 -0.161805 45.8359 0.171547 45.8498 0.977148C45.8637 2.29667 45.8498 3.61619 45.8498 4.92182ZM45.9332 12.4917C45.8915 12.6028 45.8637 12.6306 45.8637 12.6445C45.8637 13.0612 45.8498 13.4779 45.8498 13.8946C45.8359 14.8113 45.4054 15.1307 44.5025 14.8668C41.4329 13.9362 38.3633 12.9778 35.2937 12.0472C34.6409 11.8528 33.9742 11.7278 33.2797 11.5611C33.2241 11.825 33.2102 11.9361 33.1963 12.0472C32.9741 13.5612 32.7519 15.0613 32.5435 16.5753C32.4602 17.2142 32.0991 17.5059 31.474 17.492C30.8768 17.4781 30.2656 17.492 29.6684 17.492C28.5989 17.492 28.3627 17.2559 28.3627 16.2002C28.3627 14.9779 28.3627 13.7557 28.3627 12.5334C26.3765 12.5334 24.4736 12.5334 22.5291 12.5334C22.5291 13.7834 22.5291 14.9918 22.5291 16.1863C22.5291 17.2559 22.3068 17.4781 21.2234 17.4781C16.8899 17.4781 12.5702 17.5059 8.23658 17.4642C6.97262 17.4503 5.6531 17.7837 4.41692 17.2142C4.33358 15.9641 4.25024 14.714 4.18079 13.4501C4.1669 13.1445 4.18079 12.825 4.18079 12.4778C3.7641 12.4778 3.43075 12.4778 3.11129 12.4778C1.87511 12.4778 1.68065 12.6723 1.68065 13.9223C1.68065 21.4922 1.68065 29.0621 1.68065 36.632C1.68065 36.8959 1.68065 37.1737 1.68065 37.4237C17.2927 37.4237 32.8074 37.4237 48.35 37.4237C48.35 37.0903 48.35 36.8264 48.35 36.5486C48.35 29.1176 48.35 21.6867 48.35 14.2557C48.35 14.0057 48.35 13.7418 48.35 13.4918C48.3222 12.7834 48.0444 12.4917 47.3221 12.4778C46.8638 12.4778 46.3915 12.4917 45.9332 12.4917ZM5.88923 4.18566C5.88923 8.08867 5.88923 11.9361 5.88923 15.7697C10.8895 15.7697 15.8481 15.7697 20.8067 15.7697C20.8067 11.8805 20.8067 8.047 20.8067 4.18566C15.8203 4.18566 10.8756 4.18566 5.88923 4.18566ZM48.2944 39.2154C32.7241 39.2154 17.2093 39.2154 1.69454 39.2154C1.6112 40.6044 1.80566 40.8266 3.0974 40.8266C17.6955 40.8266 32.3074 40.8266 46.9055 40.8266C48.2111 40.8266 48.4194 40.5905 48.2944 39.2154ZM35.0159 4.78292C35.0159 6.51913 35.002 8.18589 35.0298 9.85266C35.0298 10.0193 35.2798 10.2693 35.4604 10.3249C37.016 10.8388 38.5855 11.325 40.1551 11.7972C41.4746 12.2 42.7941 12.6028 44.1275 13.0056C44.1275 9.31096 44.1275 5.67186 44.1275 1.96332C41.0718 2.90781 38.0716 3.83842 35.0159 4.78292ZM32.4741 46.7159C27.4599 46.7159 22.5013 46.7159 17.5704 46.7159C17.5704 47.2853 17.5704 47.7993 17.5704 48.2993C22.5707 48.2993 27.5016 48.2993 32.4741 48.2993C32.4741 47.7576 32.4741 47.2576 32.4741 46.7159ZM29.2378 5.01905C29.2378 6.71359 29.2378 8.33868 29.2378 9.94988C30.6267 9.94988 31.9463 9.94988 33.3075 9.94988C33.3075 8.28312 33.3075 6.67192 33.3075 5.01905C31.9324 5.01905 30.599 5.01905 29.2378 5.01905ZM26.6404 42.549C25.5015 42.549 24.4319 42.549 23.3763 42.549C23.3763 43.3823 23.3763 44.1463 23.3763 44.9519C24.4736 44.9519 25.5431 44.9519 26.6404 44.9519C26.6404 44.1463 26.6404 43.3685 26.6404 42.549ZM30.9462 15.7835C31.1407 14.4085 31.3351 13.0612 31.5296 11.7C30.9601 11.7 30.5156 11.7 30.0434 11.7C30.0434 13.089 30.0434 14.4362 30.0434 15.7835C30.3767 15.7835 30.6406 15.7835 30.9462 15.7835ZM45.8776 8.50535C46.461 8.28312 46.961 8.15811 47.3499 7.89421C47.4888 7.79698 47.4749 7.14417 47.3221 7.06083C46.9193 6.81081 46.4193 6.71359 45.8776 6.51913C45.8776 7.2275 45.8776 7.72753 45.8776 8.50535ZM26.7099 8.32479C27.0015 8.3109 27.2377 8.29701 27.4738 8.28312C27.4738 7.71364 27.4738 7.21361 27.4738 6.68581C27.2099 6.68581 26.9738 6.68581 26.7099 6.68581C26.7099 7.2275 26.7099 7.72753 26.7099 8.32479Z" fill="white"/>
<path d="M15.0009 20.8254C18.4733 20.8254 21.9457 20.8254 25.4181 20.8254C26.4321 20.8254 26.6821 21.0754 26.6821 22.0894C26.6821 26.2563 26.6821 30.4232 26.6821 34.5901C26.6821 35.5763 26.4321 35.8263 25.4598 35.8263C18.4872 35.8263 11.5284 35.8263 4.55582 35.8263C3.58354 35.8263 3.33353 35.5763 3.33353 34.5901C3.33353 30.4232 3.33353 26.2563 3.33353 22.0894C3.33353 21.0615 3.58354 20.8115 4.5836 20.8115C8.05602 20.8254 11.5284 20.8254 15.0009 20.8254ZM24.9736 23.2144C24.6959 23.3672 24.4736 23.4783 24.2653 23.6172C21.4734 25.3396 18.6677 27.048 15.8898 28.7981C15.2925 29.1731 14.7925 29.2287 14.1814 28.8259C12.5285 27.7564 10.8478 26.7424 9.16719 25.7146C7.81989 24.8812 6.4587 24.0617 5.06974 23.2005C5.06974 26.9091 5.06974 30.5204 5.06974 34.1178C11.7368 34.1178 18.3483 34.1178 24.9736 34.1178C24.9736 30.4787 24.9736 26.8952 24.9736 23.2144ZM22.793 22.5477C17.5427 22.5477 12.459 22.5477 7.22264 22.5477C9.79223 24.1312 12.2229 25.6451 14.6814 27.1174C14.8342 27.2147 15.1536 27.2424 15.2925 27.1452C17.751 25.6729 20.2095 24.145 22.793 22.5477Z" fill="white"/>
<path d="M30.8351 30.8262C30.2517 30.8262 29.7934 30.8401 29.335 30.8262C28.6544 30.8123 28.3488 30.5206 28.3488 29.8539C28.335 26.6176 28.335 23.3674 28.3488 20.1311C28.3488 19.4644 28.6683 19.1589 29.3489 19.1589C34.2381 19.145 39.1133 19.145 44.0025 19.1589C44.7109 19.1589 45.0026 19.4644 45.0165 20.1867C45.0303 20.9228 45.0165 21.659 45.0165 22.3674C45.0998 22.4229 45.1276 22.4646 45.1692 22.4646C46.6277 22.5479 46.6832 22.6174 46.6832 24.1175C46.6832 27.0343 46.6832 29.9511 46.6832 32.868C46.6832 33.9236 46.4471 34.1597 45.3776 34.1597C40.9607 34.1597 36.5299 34.1597 32.1129 34.1597C31.099 34.1597 30.849 33.9097 30.849 32.8957C30.8351 32.229 30.8351 31.5623 30.8351 30.8262ZM44.9609 32.4652C44.9609 29.6733 44.9609 26.9371 44.9609 24.2147C40.794 24.2147 36.6688 24.2147 32.5435 24.2147C32.5435 26.9926 32.5435 29.715 32.5435 32.4652C36.6965 32.4652 40.794 32.4652 44.9609 32.4652ZM30.8351 29.1316C30.8351 27.326 30.8351 25.5481 30.8351 23.7702C30.8351 22.7424 31.0851 22.4924 32.0852 22.4924C35.5854 22.4924 39.0717 22.4924 42.5719 22.4924C42.8219 22.4924 43.058 22.4924 43.308 22.4924C43.308 21.8951 43.308 21.3951 43.308 20.8673C38.8633 20.8673 34.4603 20.8673 30.0573 20.8673C30.0573 23.6452 30.0573 26.3954 30.0573 29.1178C30.3351 29.1316 30.5573 29.1316 30.8351 29.1316Z" fill="white"/>
<path d="M10.834 9.99143C10.834 9.25528 10.8201 8.50524 10.834 7.76908C10.8479 6.79681 11.3618 6.43567 12.2229 6.83848C13.7786 7.58852 15.3342 8.36634 16.8621 9.17194C17.1399 9.32473 17.4593 9.71364 17.4455 9.99143C17.4455 10.2692 17.126 10.6581 16.8482 10.8109C15.3203 11.6304 13.7647 12.3943 12.209 13.1444C11.3895 13.5472 10.8479 13.1861 10.834 12.2832C10.8201 11.5193 10.834 10.7554 10.834 9.99143ZM12.5285 11.1165C13.2924 10.7415 13.9869 10.3803 14.7925 9.97754C13.973 9.57474 13.2785 9.2275 12.5285 8.85248C12.5285 9.64419 12.5285 10.3387 12.5285 11.1165Z" fill="white"/>
<path d="M37.5438 27.4509C37.5438 26.923 37.5438 26.423 37.5438 25.8674C39.4467 25.8674 41.3496 25.8674 43.308 25.8674C43.308 26.3813 43.308 26.8953 43.308 27.4509C41.3774 27.4509 39.4745 27.4509 37.5438 27.4509Z" fill="white"/>
<path d="M43.308 30.7982C41.9329 30.7982 40.5995 30.7982 39.2245 30.7982C39.2245 30.2704 39.2245 29.7565 39.2245 29.2009C40.5718 29.2009 41.9191 29.2009 43.308 29.2009C43.308 29.7148 43.308 30.2149 43.308 30.7982Z" fill="white"/>
<path d="M34.2103 29.187C35.2937 29.187 36.3493 29.187 37.4605 29.187C37.4605 29.7009 37.4605 30.2148 37.4605 30.7843C36.391 30.7843 35.3215 30.7843 34.2103 30.7843C34.2103 30.2704 34.2103 29.7704 34.2103 29.187Z" fill="white"/>
<path d="M34.2103 27.4509C34.2103 26.923 34.2103 26.423 34.2103 25.8674C34.7242 25.8674 35.2381 25.8674 35.8076 25.8674C35.8076 26.3675 35.8076 26.8953 35.8076 27.4509C35.2798 27.4509 34.752 27.4509 34.2103 27.4509Z" fill="white"/>
</svg>
