<svg width="51" height="50" viewBox="0 0 51 50" fill="none" xmlns="http://www.w3.org/2000/svg">
<path d="M18.4457 42.9146C17.1841 42.9146 16.1394 42.9146 15.0967 42.9146C11.6807 42.9146 8.26476 42.9205 4.85075 42.9127C1.84872 42.9068 0.00570327 41.0598 0.00373213 38.0538C-0.000210141 29.0221 -0.00218128 19.9903 0.00373213 10.9586C0.00570327 8.00582 1.82703 6.14113 4.78176 6.12536C9.57754 6.09973 14.3713 6.10762 19.1671 6.13127C19.8294 6.13521 20.2532 5.97752 20.5666 5.34676C21.0633 4.35134 21.6606 3.40322 22.2283 2.44328C23.4839 0.320364 25.6344 -0.505542 27.7593 0.308537C29.9256 1.13839 30.9663 3.22779 30.4341 5.67988C30.4144 5.7745 30.4105 5.87305 30.3829 6.11944C30.787 6.11944 31.1654 6.11944 31.5458 6.11944C36.4402 6.11944 41.3325 6.11747 46.2269 6.11944C49.1146 6.12142 50.4687 7.46179 50.4687 10.314C50.4707 19.5094 50.4707 28.7047 50.4687 37.902C50.4687 41.111 48.675 42.9107 45.4759 42.9146C41.4035 42.9186 37.3311 42.9146 33.2588 42.9146C32.9 42.9146 32.5413 42.9146 31.9164 42.9146C32.0367 44.6256 32.153 46.2597 32.2752 47.9903C34.0236 47.9903 35.5946 47.9883 37.1636 47.9923C37.4908 47.9923 37.887 47.8977 38.1314 48.0455C38.4764 48.2544 38.8883 48.627 38.9317 48.9719C38.9652 49.2499 38.5473 49.6717 38.2319 49.8767C37.9934 50.0324 37.5972 49.9674 37.272 49.9674C29.2593 49.9713 21.2447 49.9693 13.232 49.9693C13.0014 49.9693 12.7116 50.0521 12.554 49.9457C12.1637 49.6776 11.6078 49.3642 11.5349 48.9877C11.4107 48.3569 11.9212 47.9982 12.5855 47.9962C14.1289 47.9923 15.6723 47.9686 17.2157 48.0021C17.8208 48.014 18.1264 47.8523 18.1579 47.1999C18.2229 45.828 18.3373 44.458 18.4457 42.9146ZM16.7426 26.363C17.4207 26.363 17.7794 26.363 18.1402 26.363C24.4793 26.363 30.8185 26.365 37.1577 26.361C37.8515 26.361 38.4488 26.5168 38.4586 27.3446C38.4685 28.1745 37.885 28.344 37.1813 28.344C29.2317 28.3401 21.2841 28.344 13.3345 28.3381C12.2543 28.3381 11.9942 28.0759 11.9863 26.9957C11.9744 25.0581 11.9429 23.1185 12.004 21.1829C12.0237 20.56 12.1873 19.878 12.4909 19.3379C14.4206 15.9061 16.4095 12.5059 18.3747 9.09586C18.5324 8.82384 18.6684 8.54 18.8695 8.15957C18.4595 8.13395 18.1756 8.10241 17.8938 8.10241C13.5908 8.09847 9.28778 8.09452 4.98479 8.10241C2.89736 8.10635 1.97881 9.03081 1.97684 11.1084C1.97487 18.3996 1.97487 25.6928 1.97881 32.9841C1.97881 33.3014 2.01035 33.6188 2.02612 33.942C17.5449 33.942 32.9927 33.942 48.4878 33.942C48.4878 33.5379 48.4878 33.2107 48.4878 32.8835C48.4878 25.3617 48.4878 17.8398 48.4878 10.318C48.4878 8.58139 48.0107 8.10241 46.2604 8.10044C40.8733 8.09649 35.4861 8.11226 30.099 8.0827C29.417 8.07875 29.0504 8.29755 28.7153 8.88889C26.2494 13.2234 23.6968 17.5106 21.2723 21.8688C20.2769 23.6586 19.2184 25.2868 17.2078 26.0437C17.127 26.0752 17.058 26.1462 16.7426 26.363ZM1.97881 36.0354C1.97881 36.6661 1.97881 37.1865 1.97881 37.7089C1.98078 40.0979 2.82837 40.9356 5.24892 40.9356C18.5777 40.9356 31.9046 40.9356 45.2334 40.9356C45.5606 40.9356 45.8918 40.9534 46.217 40.9179C47.3544 40.7976 48.3104 39.9855 48.4326 38.8738C48.5351 37.9474 48.4542 36.9993 48.4542 36.0354C32.9394 36.0354 17.5212 36.0354 1.97881 36.0354ZM22.3781 6.13719C19.6776 10.8147 17.0146 15.4252 14.3102 20.1086C15.7551 20.9424 17.127 21.7328 18.558 22.5587C21.2802 17.8418 23.9392 13.2333 26.6239 8.58336C25.1673 7.74366 23.8111 6.96309 22.3781 6.13719ZM20.3991 42.9481C20.3163 44.663 20.2394 46.2833 20.1606 47.9095C23.5765 47.9095 26.9334 47.9095 30.2626 47.9095C30.1404 46.2143 30.0261 44.598 29.9078 42.9481C26.7363 42.9481 23.5923 42.9481 20.3991 42.9481ZM27.572 6.84679C28.3625 5.73507 29.0129 4.67657 28.3703 3.35C27.9308 2.43933 27.1404 1.9702 26.1508 1.99386C24.6252 2.02934 23.9964 3.1588 23.4189 4.4361C24.7809 5.22455 26.1331 6.01103 27.572 6.84679ZM14.0027 25.612C15.0474 25.0069 15.9285 24.4944 16.9397 23.9089C15.8773 23.3018 14.9883 22.7933 14.0027 22.2315C14.0027 23.43 14.0027 24.4352 14.0027 25.612Z" fill="white"/>
<path d="M32.4683 20.4179C34.0393 20.4179 35.6123 20.4258 37.1833 20.414C37.8811 20.4101 38.4685 20.5697 38.4586 21.4015C38.4488 22.2196 37.8555 22.395 37.1656 22.395C33.9901 22.393 30.8146 22.393 27.6371 22.395C26.9373 22.395 26.3539 22.1959 26.3578 21.3858C26.3618 20.5638 26.9551 20.4061 27.6529 20.412C29.2593 20.4278 30.8638 20.4179 32.4683 20.4179Z" fill="white"/>
</svg>
