<svg width="72" height="45" viewBox="0 0 72 45" fill="none" xmlns="http://www.w3.org/2000/svg">
<path d="M34.8094 14.9351C37.111 11.997 39.2167 9.15672 41.5182 6.46339C42.718 5.04328 44.1871 3.81904 45.6806 2.71722C50.8959 -1.12689 56.2581 -0.857554 61.253 3.30486C64.6074 6.12061 66.6396 9.81781 68.2311 13.7843C70.6062 19.7097 72.0018 25.8553 71.7814 32.2703C71.5611 38.2936 68.5005 42.2357 62.7465 44.121C55.7929 46.3981 49.7206 44.2679 45.2644 37.5346C42.767 33.7884 40.8327 29.6505 38.6045 25.7084C37.5762 23.8966 36.4499 22.1826 35.2501 20.2238C33.83 22.4764 32.6058 24.5821 31.2101 26.5409C28.0761 30.8992 24.9176 35.282 21.5876 39.4934C19.8492 41.697 17.4742 43.264 14.634 43.7782C9.90839 44.6107 6.26016 42.6519 3.39544 39.1016C0.677629 35.7717 -0.130369 31.8051 0.0165397 27.6917C0.236903 21.644 1.46114 15.7431 3.95859 10.2585C6.33361 5.09225 10.545 1.71335 16.2989 0.611533C19.3105 0.0238978 22.0284 0.929834 24.4768 2.71722C28.174 5.41055 30.696 9.13224 33.3158 12.7805C33.8055 13.515 34.3197 14.2496 34.8094 14.9351ZM69.2105 30.7523C68.9657 26.4919 68.0353 21.4481 66.2723 16.6001C64.8033 12.5846 62.9424 8.78945 59.8084 5.77782C56.0377 2.17856 51.4835 1.86026 47.2477 4.92085C42.8159 8.12836 39.9512 12.658 37.0865 17.1877C36.9151 17.4571 37.062 18.0447 37.2579 18.363C39.1432 21.595 41.1265 24.778 42.9384 28.059C44.9216 31.6582 46.6356 35.4289 49.5003 38.465C52.0222 41.1583 55.1318 42.5295 58.829 42.0643C63.0159 41.5256 66.7131 40.032 68.2801 35.6248C68.8188 34.0822 68.9167 32.3928 69.2105 30.7523ZM2.78332 27.0306C2.8078 30.7768 3.24853 33.568 4.71762 36.1389C7.21506 40.4483 11.7692 42.2357 15.8092 40.4483C17.8415 39.5423 19.335 37.9753 20.6817 36.2614C25.2114 30.6299 29.3003 24.6801 32.8751 18.3875C33.0465 18.0692 33.022 17.4326 32.8261 17.1388C31.4795 15.131 30.2063 13.0988 28.6637 11.2624C26.8029 9.05878 24.8931 6.85515 22.7139 4.99431C20.3144 2.9131 17.3762 2.64377 14.4381 3.91698C11.2061 5.33709 8.51276 7.51624 6.89676 10.6503C4.1055 16.0125 3.39544 21.9623 2.78332 27.0306Z" fill="white"/>
</svg>
