<svg width="74" height="50" viewBox="0 0 74 50" fill="none" xmlns="http://www.w3.org/2000/svg">
<path d="M19.7143 7.83647C22.1498 9.47614 24.5986 10.0717 27.4587 9.18773C30.3108 8.3038 33.2296 8.24772 36.0203 9.69245C36.3301 9.85268 36.8962 9.7966 37.2193 9.61768C40.4105 7.86851 43.6685 7.86584 46.996 9.14233C47.6582 9.39603 48.3152 9.66842 48.9775 9.92478C51.7227 10.9983 52.5853 10.8701 55.1436 8.96341C54.9487 8.41062 54.7083 7.84181 54.5454 7.2543C54.0754 5.52917 54.7644 3.98563 56.3747 3.28596C57.758 2.68511 59.1653 2.13232 60.5914 1.64629C62.4367 1.01605 64.0844 1.76646 64.8081 3.61176C67.6094 10.758 70.3867 17.9175 73.1373 25.0851C73.837 26.9091 73.0812 28.5728 71.276 29.3445C70.0529 29.8679 68.8004 30.3219 67.5533 30.7866C65.3448 31.6091 63.9402 31.0243 62.8933 28.8692C62.8025 28.6796 62.6904 28.5007 62.5408 28.239C61.6302 28.6101 60.7543 28.9146 59.9344 29.3312C59.654 29.4727 59.3576 29.8866 59.3416 30.1911C59.2374 32.3488 58.1559 33.7615 56.1904 34.5466C56.5136 38.0236 55.0795 40.0745 51.461 40.4164C50.4756 43.9467 49.4394 44.8333 46.0853 44.9134C45.7782 46.684 45.0545 48.2248 43.2306 49.0073C41.412 49.7897 39.8684 49.0821 38.3783 48.1741C36.0096 50.7271 32.5246 50.7511 30.4416 47.3009C27.2344 47.624 26.3237 47.2742 24.6761 45.087C20.7878 46.2941 18.0773 44.163 18.0159 40.4377C17.7381 40.3629 17.4471 40.2802 17.156 40.2027C14.0102 39.3615 12.6856 36.4453 14.1704 33.5479C14.7365 32.4423 15.0436 31.4569 14.8433 30.0816C14.5282 27.9265 13.2651 27.1975 11.4011 26.7194C11.2302 27.0372 11.0513 27.3791 10.867 27.7155C10.0285 29.2591 8.43419 29.9107 6.79184 29.2724C5.34711 28.7116 3.92374 28.0761 2.53242 27.3924C0.892746 26.5859 0.209103 24.9062 0.935474 23.2451C4.04659 16.1256 7.19241 9.02216 10.373 1.9347C11.1714 0.15616 12.7897 -0.417994 14.5843 0.303036C15.8608 0.815769 17.1159 1.37924 18.3657 1.95072C20.4594 2.90943 21.0682 4.51706 20.179 6.65611C20.0161 7.05402 19.8639 7.45993 19.7143 7.83647ZM24.417 30.8587C25.8911 31.4462 27.3546 31.5957 28.0649 32.4076C29.2559 33.7695 30.3775 34.5413 32.2709 34.6081C33.8038 34.6615 34.3486 36.7925 35.4728 37.2652C36.736 37.7966 38.3169 37.583 39.6601 38.523C41.6924 39.941 43.8742 41.1534 46.0453 42.3551C47.0093 42.8892 48.1683 42.4005 48.6703 41.4632C49.1724 40.5258 48.8733 39.447 47.9039 38.7954C47.498 38.523 47.0627 38.296 46.6381 38.0556C44.3976 36.7845 42.149 35.524 39.9138 34.2422C39.2489 33.863 38.7228 33.3716 39.2462 32.5277C39.7296 31.7506 40.3919 31.8227 41.0942 32.2126C41.3666 32.3648 41.639 32.5171 41.9087 32.6693C44.7741 34.2823 47.6235 35.9273 50.521 37.4788C51.0871 37.7833 51.9684 37.9916 52.4891 37.7619C53.0713 37.5055 53.7736 36.6857 53.7576 36.1302C53.7389 35.4279 53.2155 34.4799 52.6147 34.1007C50.3661 32.6773 48.0001 31.4409 45.6767 30.135C44.937 29.7184 44.224 29.2163 44.7581 28.2576C45.2922 27.3016 46.0693 27.6328 46.8224 28.0627C49.0202 29.3205 51.2126 30.589 53.4425 31.788C53.998 32.0871 54.8018 32.4209 55.2905 32.2287C55.9287 31.9776 56.607 31.3047 56.842 30.6584C57.2052 29.6596 56.5429 28.8825 55.6537 28.3778C52.3342 26.4871 48.9721 24.6632 45.7061 22.6843C44.0371 21.6749 42.4107 21.4746 40.6242 22.1422C38.7976 22.8259 36.979 23.5336 35.139 24.1798C31.3362 25.5124 27.8806 25.1919 25.0526 21.9847C23.7708 20.5319 23.8749 19.7068 25.4932 18.6813C26.4306 18.0858 27.4053 17.5303 28.2705 16.8387C30.3241 15.191 32.3217 13.4765 34.4767 11.674C33.996 11.4416 33.8465 11.3455 33.6809 11.2921C31.6834 10.6512 29.7046 10.977 27.7738 11.5297C25.0793 12.2988 22.5183 12.2241 20.0721 10.7366C19.6662 10.4909 19.2016 10.3441 18.6675 10.109C16.5418 14.9186 14.4535 19.6453 12.3625 24.3801C13.4413 24.9089 14.5336 25.216 15.308 25.8916C16.0905 26.5726 16.5551 27.6167 17.164 28.5087C20.4807 26.5672 23.234 27.5473 24.417 30.8587ZM27.2504 20.7883C28.834 22.4627 30.7701 23.0315 33.3177 22.2517C35.4782 21.5895 37.5692 20.7135 39.7082 19.9845C41.8713 19.2474 44.0371 19.0391 46.1307 20.2515C50.0483 22.5214 53.9659 24.7967 57.8915 27.0559C58.1319 27.1948 58.4977 27.3176 58.7247 27.2322C59.7448 26.853 60.7356 26.3963 61.7744 25.9503C59.8436 20.9833 57.9743 16.1737 56.0275 11.1692C53.0179 13.7142 50.0216 13.124 46.9986 11.7033C46.9185 11.6659 46.8384 11.6259 46.7583 11.5912C42.7953 9.78859 39.2462 10.5363 36.0123 13.3136C33.1201 15.7918 30.2173 18.2567 27.2504 20.7883ZM61.8465 3.66517C60.1561 4.35149 58.6206 4.92831 57.1384 5.62264C56.9195 5.72412 56.8046 6.41844 56.9061 6.76293C57.1892 7.73766 57.6085 8.675 57.9743 9.62569C60.2976 15.6183 62.645 21.6028 64.9229 27.6114C65.3609 28.7624 65.919 29.0241 67.0086 28.514C68.01 28.044 69.0595 27.6755 70.0983 27.2856C70.9075 26.9838 71.1879 26.5485 70.8407 25.6593C68.1141 18.6813 65.433 11.6873 62.7064 4.70933C62.5542 4.3141 62.1456 4.01768 61.8465 3.66517ZM18.2989 4.93098C18.0052 4.66393 17.7221 4.27671 17.3402 4.08711C16.3121 3.57171 15.2252 3.17113 14.1917 2.66374C13.217 2.18573 12.6883 2.4234 12.245 3.43818C9.28073 10.2159 6.27644 16.9775 3.25345 23.7312C2.83953 24.6552 3.1226 25.1252 3.97181 25.475C4.99461 25.8969 6.03075 26.3082 7.00548 26.8263C8.04163 27.3791 8.6051 27.0987 9.05908 26.0625C11.9726 19.4077 14.9208 12.7662 17.853 6.11935C17.9972 5.80156 18.1013 5.46508 18.2989 4.93098ZM27.5815 35.3958C27.0528 34.8885 26.5534 34.1194 25.8511 33.8069C24.9912 33.4224 24.1446 33.7642 23.6319 34.7175C22.748 36.3572 21.7839 37.9542 20.884 39.5832C20.1256 40.9558 20.3899 42.1869 21.5329 42.8064C22.6866 43.4313 23.8749 42.9827 24.604 41.602C25.4318 40.0345 26.2356 38.4509 27.0314 36.8673C27.2023 36.5201 27.3065 36.1356 27.5815 35.3958ZM30.6392 36.6697C30.3241 36.9287 29.5844 37.2946 29.2105 37.8901C28.3907 39.1959 27.7498 40.614 27.0448 41.9919C26.3718 43.3085 26.6362 44.2939 27.8005 44.8948C28.9008 45.4609 29.977 45.0763 30.6579 43.8185C31.395 42.4566 32.108 41.084 32.7997 39.698C33.4673 38.3601 32.5673 36.8085 30.6392 36.6697ZM22.3608 31.7373C21.8961 31.2059 21.4982 30.378 20.884 30.1537C20.2618 29.9267 19.0387 30.0335 18.7503 30.4555C17.666 32.039 16.718 33.7562 15.9943 35.5347C15.5884 36.5335 16.3201 37.4094 17.3483 37.802C18.3657 38.1918 19.1402 37.842 19.6716 36.8913C20.3419 35.6949 21.0495 34.5199 21.7092 33.3209C21.9388 32.9016 22.0777 32.437 22.3608 31.7373ZM35.0295 47.6C35.2805 47.4424 36.0042 47.2288 36.314 46.7454C37.1712 45.4128 37.9163 43.9975 38.5866 42.5608C39.0433 41.578 38.5198 40.4404 37.5798 39.9784C36.5544 39.4763 35.4274 39.8102 34.864 40.8463C34.167 42.1255 33.4993 43.4206 32.8558 44.7292C32.1641 46.1392 33.0721 47.5813 35.0295 47.6ZM39.556 46.035C40.528 46.7214 41.5188 47.4958 42.5897 46.6252C43.1104 46.2006 43.5243 45.29 43.4976 44.617C43.4442 43.2551 42.1998 42.9213 41.2064 42.4673C40.6242 43.7224 40.0928 44.8707 39.556 46.035Z" fill="white"/>
<path d="M60.2202 9.05967C59.8436 8.56563 59.2401 8.11165 59.1413 7.56954C58.9891 6.73101 59.5445 6.1622 60.4659 6.14885C61.3311 6.13816 61.8625 6.6509 61.7424 7.45738C61.6596 8.01551 61.1655 8.51222 60.8558 9.03564C60.6475 9.04365 60.4338 9.05166 60.2202 9.05967Z" fill="white"/>
<path d="M14.1731 4.57056C15.3588 4.82959 15.9436 5.34767 15.7593 6.12211C15.6338 6.64819 14.9876 7.3078 14.4668 7.42263C13.5962 7.61491 12.99 6.92058 13.1396 6.06336C13.2304 5.52392 13.8099 5.06727 14.1731 4.57056Z" fill="white"/>
</svg>
