<svg width="50" height="50" viewBox="0 0 50 50" fill="none" xmlns="http://www.w3.org/2000/svg">
<path d="M0.0138924 20.9776C3.01466 20.408 5.91818 19.8662 8.8217 19.3105C9.62746 19.1577 10.0581 18.1574 9.59968 17.4906C8.07151 15.2817 6.54334 13.0728 5.01517 10.8639C4.86235 10.6416 4.70954 10.4054 4.57061 10.2109C6.47388 8.30768 8.34936 6.4322 10.2665 4.52893C12.2392 5.89039 14.2536 7.27964 16.268 8.66888C16.6292 8.91895 16.9905 9.16901 17.3517 9.41907C18.2824 10.0581 19.1855 9.66914 19.38 8.55774C19.8662 5.84872 20.3524 3.13969 20.8387 0.430666C20.8664 0.291741 20.9081 0.166709 20.9498 0C23.6171 0 26.2706 0 29.0074 0C29.2436 1.22253 29.4936 2.45896 29.7298 3.69539C30.0493 5.40416 30.355 7.11293 30.6745 8.80781C30.8134 9.558 31.8415 9.98866 32.4666 9.558C34.8978 7.87701 37.3429 6.19603 39.7324 4.54283C41.6217 6.44609 43.4833 8.33546 45.4144 10.2804C44.3586 11.8086 43.2333 13.4479 42.108 15.0733C41.5384 15.893 40.9688 16.7126 40.4131 17.5323C39.9824 18.1574 40.427 19.1716 41.1911 19.3105C43.9418 19.7967 46.7064 20.2969 49.4571 20.797C49.6377 20.8248 49.8044 20.8803 49.985 20.9359C49.985 23.631 49.985 26.2845 49.985 28.9935C47.6233 29.4103 45.2894 29.8271 42.9415 30.2577C42.3442 30.3689 41.7607 30.4661 41.1633 30.5773C40.3992 30.7162 39.913 31.8415 40.3436 32.4805C41.8996 34.7311 43.4555 36.9678 44.9976 39.2184C45.1226 39.4129 45.2477 39.5935 45.4422 39.8991C44.6086 40.7048 43.7751 41.4967 42.9554 42.3025C42.0246 43.2055 41.1077 44.1224 40.2186 45.0532C39.8852 45.4144 39.649 45.4422 39.2322 45.1504C36.9817 43.5667 34.7033 42.0107 32.4388 40.4409C31.6887 39.9269 30.7162 40.3575 30.5495 41.2744C30.0493 44.0807 29.5353 46.8731 29.0352 49.6655C29.0213 49.7488 28.9935 49.8322 28.9518 49.985C28.2572 49.985 27.5626 49.985 26.868 49.985C25.1036 49.985 23.3532 49.9711 21.5889 49.9989C21.0887 50.0128 20.8664 49.9016 20.7831 49.3598C20.3246 46.6508 19.8245 43.9418 19.3383 41.2328C19.1855 40.3714 18.1991 39.9408 17.4906 40.427C15.2817 41.9552 13.0728 43.4833 10.8639 45.0115C10.6416 45.1643 10.4054 45.3171 10.2248 45.4422C8.32157 43.5389 6.45998 41.6773 4.54283 39.7463C5.48751 38.3848 6.45998 36.9678 7.44635 35.5369C8.15486 34.5088 8.86338 33.4808 9.57189 32.4527C10.0164 31.8137 9.58578 30.7995 8.8217 30.6606C6.04321 30.1605 3.26472 29.6742 0.500128 29.1463C0.305634 29.1047 0 28.8407 0 28.6879C0 26.1317 0.0138924 23.5894 0.0138924 20.9776ZM40.0241 25.0203C40.038 16.7821 33.328 10.0164 25.1036 9.97477C16.8376 9.93309 10.0442 16.6848 10.0164 24.9369C10.0026 33.1613 16.7265 39.9408 24.9508 39.9685C33.2168 40.0102 40.0102 33.2724 40.0241 25.0203ZM43.3722 10.4193C42.108 9.12733 40.8854 7.8909 39.6212 6.6128C37.6763 7.96037 35.7314 9.32183 33.7031 10.725C35.9814 12.1976 37.8013 14.0314 39.2878 16.2958C40.691 14.2814 42.0246 12.3365 43.3722 10.4193ZM10.8639 16.3097C12.3504 14.0036 14.1703 12.1976 16.4348 10.725C14.4065 9.32183 12.4337 7.94647 10.5305 6.62669C9.22458 7.91869 8.00204 9.14122 6.73783 10.3777C8.0854 12.3087 9.43297 14.2536 10.8639 16.3097ZM16.4348 39.2322C14.1564 37.7596 12.3365 35.9258 10.85 33.6614C9.43297 35.7036 8.07151 37.6624 6.72394 39.6073C7.96037 40.8438 9.16901 42.0524 10.4054 43.2888C12.3921 41.9552 14.3787 40.6076 16.4348 39.2322ZM39.2739 33.578C37.8013 35.8564 35.9675 37.6763 33.7031 39.1628C35.7452 40.5798 37.7041 41.9413 39.6351 43.2888C40.8716 42.0524 42.0802 40.8438 43.3166 39.6073C41.9968 37.6207 40.6632 35.6202 39.2739 33.578ZM41.2189 28.9796C43.7056 28.5073 46.0257 28.0766 48.3318 27.646C48.3318 25.8399 48.3318 24.1312 48.3318 22.3946C45.984 21.9639 43.6639 21.5194 41.2328 21.0748C41.8162 23.7283 41.8579 26.2845 41.2189 28.9796ZM22.3529 1.68099C21.9362 4.0427 21.5333 6.36274 21.1165 8.79391C23.77 8.15486 26.3262 8.18265 28.938 8.78002C28.4795 6.33495 28.0488 4.01491 27.6182 1.68099C25.8677 1.68099 24.159 1.68099 22.3529 1.68099ZM28.938 41.1633C26.2845 41.8301 23.7283 41.7746 21.1165 41.1911C21.575 43.6362 22.0056 45.9701 22.4502 48.2901C24.2284 48.2901 25.9372 48.2901 27.7015 48.2901C28.1044 45.9562 28.5073 43.6362 28.938 41.1633ZM8.83559 28.8963C8.19654 26.2428 8.22432 23.6866 8.8217 21.0748C6.37663 21.5333 4.07048 21.9639 1.72266 22.3946C1.72266 24.1451 1.72266 25.8677 1.72266 27.646C4.05659 28.0488 6.37663 28.4656 8.83559 28.8963Z" fill="white"/>
<path d="M20.3246 17.8518C20.6303 18.1713 20.9915 18.5186 21.3805 18.9215C19.3799 20.8943 17.3516 22.8809 15.2817 24.9092C17.4072 27.0069 19.4216 28.9935 21.436 30.9802C20.9915 31.4108 20.6303 31.772 20.3107 32.0777C17.949 29.7021 15.5595 27.2987 13.2117 24.937C15.5317 22.6447 17.9351 20.2413 20.3246 17.8518Z" fill="white"/>
<path d="M29.7576 17.8379C32.1332 20.2274 34.5088 22.603 36.8428 24.9508C34.4949 27.2847 32.0916 29.6742 29.6465 32.0915C29.3964 31.8276 29.0352 31.4525 28.6462 31.0357C30.6606 29.0491 32.6611 27.0625 34.6894 25.0759C32.6056 23.0198 30.5773 21.0332 28.4934 18.991C29.0074 18.5186 29.3964 18.1713 29.7576 17.8379Z" fill="white"/>
<path d="M24.1728 31.8832C23.6171 31.7303 23.1309 31.6053 22.5613 31.4525C23.6727 27.0069 24.7702 22.603 25.8816 18.1296C26.4234 18.2686 26.8958 18.3797 27.507 18.5325C26.3817 22.9781 25.2842 27.382 24.1728 31.8832Z" fill="white"/>
</svg>
