<svg width="57" height="52" viewBox="0 0 57 52" fill="none" xmlns="http://www.w3.org/2000/svg">
<mask id="path-1-outside-1_22_4" maskUnits="userSpaceOnUse" x="0" y="0" width="57" height="52" fill="black">
<rect fill="white" width="57" height="52"/>
<path d="M11.0247 10.5465C11.2395 10.5752 11.3684 10.6038 11.5116 10.6038C14.3035 10.6038 17.0955 10.6181 19.8875 10.5895C20.1023 10.5895 20.4316 10.475 20.5318 10.3031C22.1354 7.64001 23.9681 5.16301 26.3019 2.74329C25.7149 2.81488 25.3426 2.85783 24.9704 2.9151C22.5077 3.24441 20.2025 4.01758 17.9832 5.12006C17.883 5.17733 17.7685 5.22028 17.6539 5.26324C17.1528 5.50664 16.7376 5.37778 16.5228 4.89097C16.3081 4.4328 16.5085 4.0319 16.9524 3.83145C18.2123 3.27305 19.458 2.64306 20.7752 2.22784C31.8287 -1.23709 43.1541 2.77192 49.4683 12.4795C50.5708 14.1833 51.301 16.1305 52.1601 17.9919C52.3319 18.3641 52.4894 18.5932 52.9332 18.6934C54.7946 19.1086 55.9686 20.5834 55.983 22.4877C55.9973 24.8072 55.9973 27.1124 55.983 29.4319C55.9686 31.3934 54.8232 32.8395 52.9046 33.2834C52.5037 33.3693 52.3176 33.5411 52.1887 33.942C50.7426 38.2374 48.2942 41.8741 44.8723 44.8666C44.0848 45.5538 43.6839 45.6254 43.2973 45.1529C42.9107 44.6947 43.0682 44.3225 43.8271 43.6209C44.543 42.9623 45.2445 42.275 46.0893 41.4732C45.7313 41.4303 45.5309 41.3873 45.3448 41.3873C42.6244 41.3873 39.904 41.373 37.1836 41.4016C36.9402 41.4016 36.5679 41.5162 36.4677 41.688C34.8641 44.3511 33.0314 46.8281 30.9123 49.2478C31.8 49.1047 32.7021 48.9901 33.5754 48.804C35.852 48.3172 37.9997 47.4724 40.0328 46.3413C40.7344 45.9404 41.1926 45.9977 41.436 46.5131C41.7366 47.1574 41.3214 47.4581 40.8203 47.7445C30.2394 53.8439 16.4799 51.1521 8.92002 41.5162C7.1446 39.2396 5.75576 36.7626 4.83941 34.0136C4.69623 33.584 4.48147 33.3836 4.02329 33.2691C2.20492 32.8538 1.03085 31.3648 1.01653 29.5034C1.00221 27.141 0.987897 24.7785 1.01653 22.4161C1.03085 20.5977 2.21924 19.1086 3.99466 18.7077C4.49578 18.5932 4.69623 18.3641 4.85373 17.9203C6.48597 13.1954 9.27796 9.30089 13.2154 6.22254C13.6163 5.90754 14.0172 5.75005 14.4467 6.07936C14.8906 6.40867 14.819 6.95275 14.3179 7.41092C13.3156 8.32727 12.3134 9.24361 11.3254 10.1743C11.2109 10.2602 11.1536 10.389 11.0247 10.5465ZM28.4926 20.2111C20.718 20.2111 12.9433 20.2111 5.16873 20.2111C3.50785 20.2111 2.5915 21.1132 2.5915 22.774C2.5915 24.9504 2.57718 27.1124 2.5915 29.2887C2.5915 30.8636 3.50785 31.78 5.08282 31.78C20.6893 31.78 36.2815 31.78 51.888 31.78C53.4916 31.78 54.3937 30.8493 54.3937 29.2314C54.3937 27.1839 54.3937 25.1222 54.3937 23.0747C54.3937 21.0272 53.5776 20.2111 51.5444 20.2111C43.8557 20.2111 36.1813 20.2111 28.4926 20.2111ZM18.4128 18.5073C25.2281 18.5073 31.7857 18.5073 38.5724 18.5073C37.6274 16.4312 36.754 14.484 35.8377 12.551C35.7518 12.3792 35.4225 12.2217 35.222 12.2217C30.7405 12.2074 26.259 12.2074 21.7775 12.2217C21.5627 12.2217 21.2334 12.3792 21.1618 12.551C20.2312 14.484 19.3578 16.4312 18.4128 18.5073ZM18.3985 33.4552C19.3578 35.5599 20.2598 37.5358 21.1905 39.5117C21.262 39.6548 21.577 39.7551 21.7918 39.7551C26.2447 39.7694 30.7119 39.7694 35.1647 39.7407C35.4225 39.7407 35.7804 39.4973 35.9093 39.2683C36.3674 38.4378 36.797 37.5787 37.1692 36.7054C37.6131 35.6458 37.9997 34.572 38.4435 33.4409C31.7428 33.4552 25.1995 33.4552 18.3985 33.4552ZM37.5701 39.7694C37.8994 39.7694 38.1572 39.7694 38.4149 39.7694C40.6628 39.7694 42.9107 39.6262 45.13 39.8123C46.9484 39.9698 48.0222 39.3542 48.7238 37.7362C49.3395 36.3188 50.041 34.9586 50.6997 33.584C50.4992 33.4838 50.4562 33.4409 50.4276 33.4409C47.1059 33.4409 43.7984 33.4266 40.4767 33.4409C40.3049 33.4409 40.0615 33.6986 39.9755 33.8847C39.6462 34.6722 39.4028 35.5026 39.0735 36.2901C38.6153 37.4356 38.0999 38.5667 37.5701 39.7694ZM50.5708 18.5646C50.5565 18.4071 50.5708 18.3212 50.5565 18.2639C49.8406 16.2021 48.8526 14.2835 47.564 12.5224C47.4352 12.3363 47.0915 12.2361 46.8481 12.2217C43.9416 12.2074 41.0351 12.2074 38.1142 12.2074C37.9424 12.2074 37.7849 12.2504 37.6847 12.2647C38.4722 14.2692 39.231 16.2164 40.0185 18.1637C40.0901 18.3355 40.3335 18.5359 40.5053 18.5359C43.8414 18.5789 47.1774 18.5646 50.5708 18.5646ZM6.25689 18.4357C6.47165 18.5216 6.51461 18.5502 6.55756 18.5502C9.85068 18.5502 13.1438 18.5646 16.4369 18.5359C16.6374 18.5359 16.9237 18.2353 17.0096 18.0062C17.4535 16.9466 17.8114 15.8728 18.2553 14.8133C18.5989 13.9685 19.0141 13.1381 19.4294 12.2074C19.0714 12.2074 18.8137 12.2074 18.556 12.2074C16.3367 12.2074 14.1031 12.3649 11.9125 12.1645C10.0654 11.9927 8.96297 12.6226 8.26139 14.2692C7.64572 15.6867 6.92983 17.0469 6.25689 18.4357ZM6.32847 33.4266C7.07301 35.5886 8.04662 37.4928 9.26365 39.2683C9.52137 39.6548 9.80772 39.7837 10.2516 39.7837C13.0865 39.7694 15.9215 39.7694 18.7707 39.7694C18.9712 39.7694 19.1716 39.7407 19.3148 39.7264C18.513 37.6933 17.7398 35.7031 16.9237 33.7272C16.8521 33.5697 16.5228 33.4409 16.3081 33.4409C14.9049 33.4122 13.4874 33.4266 12.0843 33.4266C10.2086 33.4266 8.33298 33.4266 6.32847 33.4266ZM30.8837 2.82919C33.0027 5.14869 34.8497 7.62569 36.4533 10.2888C36.5679 10.4893 36.9688 10.5895 37.2265 10.6038C39.9183 10.6324 42.61 10.6181 45.3161 10.6181C45.5166 10.6181 45.7027 10.5895 46.0463 10.5609C41.8655 5.99345 36.8972 3.40191 30.8837 2.82919ZM11.0104 41.4016C13.874 45.382 22.4791 49.7346 26.1731 49.1333C23.9968 46.8854 22.1498 44.4084 20.5462 41.7453C20.4316 41.5448 20.045 41.4303 19.7873 41.4159C18.1407 41.3873 16.4942 41.4016 14.8476 41.4016C13.602 41.4016 12.3706 41.4016 11.0104 41.4016ZM28.5212 2.92942C26.5597 4.51871 23.3095 8.55635 22.3645 10.5465C26.4594 10.5465 30.54 10.5465 34.7066 10.5465C32.9455 7.68296 30.9553 5.14869 28.5212 2.92942ZM22.2786 41.4446C24.054 44.3368 26.0442 46.8711 28.4926 49.0903C30.9553 46.8567 32.9455 44.3082 34.7066 41.4446C30.5257 41.4446 26.4738 41.4446 22.2786 41.4446Z"/>
</mask>
<path d="M11.0247 10.5465C11.2395 10.5752 11.3684 10.6038 11.5116 10.6038C14.3035 10.6038 17.0955 10.6181 19.8875 10.5895C20.1023 10.5895 20.4316 10.475 20.5318 10.3031C22.1354 7.64001 23.9681 5.16301 26.3019 2.74329C25.7149 2.81488 25.3426 2.85783 24.9704 2.9151C22.5077 3.24441 20.2025 4.01758 17.9832 5.12006C17.883 5.17733 17.7685 5.22028 17.6539 5.26324C17.1528 5.50664 16.7376 5.37778 16.5228 4.89097C16.3081 4.4328 16.5085 4.0319 16.9524 3.83145C18.2123 3.27305 19.458 2.64306 20.7752 2.22784C31.8287 -1.23709 43.1541 2.77192 49.4683 12.4795C50.5708 14.1833 51.301 16.1305 52.1601 17.9919C52.3319 18.3641 52.4894 18.5932 52.9332 18.6934C54.7946 19.1086 55.9686 20.5834 55.983 22.4877C55.9973 24.8072 55.9973 27.1124 55.983 29.4319C55.9686 31.3934 54.8232 32.8395 52.9046 33.2834C52.5037 33.3693 52.3176 33.5411 52.1887 33.942C50.7426 38.2374 48.2942 41.8741 44.8723 44.8666C44.0848 45.5538 43.6839 45.6254 43.2973 45.1529C42.9107 44.6947 43.0682 44.3225 43.8271 43.6209C44.543 42.9623 45.2445 42.275 46.0893 41.4732C45.7313 41.4303 45.5309 41.3873 45.3448 41.3873C42.6244 41.3873 39.904 41.373 37.1836 41.4016C36.9402 41.4016 36.5679 41.5162 36.4677 41.688C34.8641 44.3511 33.0314 46.8281 30.9123 49.2478C31.8 49.1047 32.7021 48.9901 33.5754 48.804C35.852 48.3172 37.9997 47.4724 40.0328 46.3413C40.7344 45.9404 41.1926 45.9977 41.436 46.5131C41.7366 47.1574 41.3214 47.4581 40.8203 47.7445C30.2394 53.8439 16.4799 51.1521 8.92002 41.5162C7.1446 39.2396 5.75576 36.7626 4.83941 34.0136C4.69623 33.584 4.48147 33.3836 4.02329 33.2691C2.20492 32.8538 1.03085 31.3648 1.01653 29.5034C1.00221 27.141 0.987897 24.7785 1.01653 22.4161C1.03085 20.5977 2.21924 19.1086 3.99466 18.7077C4.49578 18.5932 4.69623 18.3641 4.85373 17.9203C6.48597 13.1954 9.27796 9.30089 13.2154 6.22254C13.6163 5.90754 14.0172 5.75005 14.4467 6.07936C14.8906 6.40867 14.819 6.95275 14.3179 7.41092C13.3156 8.32727 12.3134 9.24361 11.3254 10.1743C11.2109 10.2602 11.1536 10.389 11.0247 10.5465ZM28.4926 20.2111C20.718 20.2111 12.9433 20.2111 5.16873 20.2111C3.50785 20.2111 2.5915 21.1132 2.5915 22.774C2.5915 24.9504 2.57718 27.1124 2.5915 29.2887C2.5915 30.8636 3.50785 31.78 5.08282 31.78C20.6893 31.78 36.2815 31.78 51.888 31.78C53.4916 31.78 54.3937 30.8493 54.3937 29.2314C54.3937 27.1839 54.3937 25.1222 54.3937 23.0747C54.3937 21.0272 53.5776 20.2111 51.5444 20.2111C43.8557 20.2111 36.1813 20.2111 28.4926 20.2111ZM18.4128 18.5073C25.2281 18.5073 31.7857 18.5073 38.5724 18.5073C37.6274 16.4312 36.754 14.484 35.8377 12.551C35.7518 12.3792 35.4225 12.2217 35.222 12.2217C30.7405 12.2074 26.259 12.2074 21.7775 12.2217C21.5627 12.2217 21.2334 12.3792 21.1618 12.551C20.2312 14.484 19.3578 16.4312 18.4128 18.5073ZM18.3985 33.4552C19.3578 35.5599 20.2598 37.5358 21.1905 39.5117C21.262 39.6548 21.577 39.7551 21.7918 39.7551C26.2447 39.7694 30.7119 39.7694 35.1647 39.7407C35.4225 39.7407 35.7804 39.4973 35.9093 39.2683C36.3674 38.4378 36.797 37.5787 37.1692 36.7054C37.6131 35.6458 37.9997 34.572 38.4435 33.4409C31.7428 33.4552 25.1995 33.4552 18.3985 33.4552ZM37.5701 39.7694C37.8994 39.7694 38.1572 39.7694 38.4149 39.7694C40.6628 39.7694 42.9107 39.6262 45.13 39.8123C46.9484 39.9698 48.0222 39.3542 48.7238 37.7362C49.3395 36.3188 50.041 34.9586 50.6997 33.584C50.4992 33.4838 50.4562 33.4409 50.4276 33.4409C47.1059 33.4409 43.7984 33.4266 40.4767 33.4409C40.3049 33.4409 40.0615 33.6986 39.9755 33.8847C39.6462 34.6722 39.4028 35.5026 39.0735 36.2901C38.6153 37.4356 38.0999 38.5667 37.5701 39.7694ZM50.5708 18.5646C50.5565 18.4071 50.5708 18.3212 50.5565 18.2639C49.8406 16.2021 48.8526 14.2835 47.564 12.5224C47.4352 12.3363 47.0915 12.2361 46.8481 12.2217C43.9416 12.2074 41.0351 12.2074 38.1142 12.2074C37.9424 12.2074 37.7849 12.2504 37.6847 12.2647C38.4722 14.2692 39.231 16.2164 40.0185 18.1637C40.0901 18.3355 40.3335 18.5359 40.5053 18.5359C43.8414 18.5789 47.1774 18.5646 50.5708 18.5646ZM6.25689 18.4357C6.47165 18.5216 6.51461 18.5502 6.55756 18.5502C9.85068 18.5502 13.1438 18.5646 16.4369 18.5359C16.6374 18.5359 16.9237 18.2353 17.0096 18.0062C17.4535 16.9466 17.8114 15.8728 18.2553 14.8133C18.5989 13.9685 19.0141 13.1381 19.4294 12.2074C19.0714 12.2074 18.8137 12.2074 18.556 12.2074C16.3367 12.2074 14.1031 12.3649 11.9125 12.1645C10.0654 11.9927 8.96297 12.6226 8.26139 14.2692C7.64572 15.6867 6.92983 17.0469 6.25689 18.4357ZM6.32847 33.4266C7.07301 35.5886 8.04662 37.4928 9.26365 39.2683C9.52137 39.6548 9.80772 39.7837 10.2516 39.7837C13.0865 39.7694 15.9215 39.7694 18.7707 39.7694C18.9712 39.7694 19.1716 39.7407 19.3148 39.7264C18.513 37.6933 17.7398 35.7031 16.9237 33.7272C16.8521 33.5697 16.5228 33.4409 16.3081 33.4409C14.9049 33.4122 13.4874 33.4266 12.0843 33.4266C10.2086 33.4266 8.33298 33.4266 6.32847 33.4266ZM30.8837 2.82919C33.0027 5.14869 34.8497 7.62569 36.4533 10.2888C36.5679 10.4893 36.9688 10.5895 37.2265 10.6038C39.9183 10.6324 42.61 10.6181 45.3161 10.6181C45.5166 10.6181 45.7027 10.5895 46.0463 10.5609C41.8655 5.99345 36.8972 3.40191 30.8837 2.82919ZM11.0104 41.4016C13.874 45.382 22.4791 49.7346 26.1731 49.1333C23.9968 46.8854 22.1498 44.4084 20.5462 41.7453C20.4316 41.5448 20.045 41.4303 19.7873 41.4159C18.1407 41.3873 16.4942 41.4016 14.8476 41.4016C13.602 41.4016 12.3706 41.4016 11.0104 41.4016ZM28.5212 2.92942C26.5597 4.51871 23.3095 8.55635 22.3645 10.5465C26.4594 10.5465 30.54 10.5465 34.7066 10.5465C32.9455 7.68296 30.9553 5.14869 28.5212 2.92942ZM22.2786 41.4446C24.054 44.3368 26.0442 46.8711 28.4926 49.0903C30.9553 46.8567 32.9455 44.3082 34.7066 41.4446C30.5257 41.4446 26.4738 41.4446 22.2786 41.4446Z" fill="white"/>
<path d="M11.0247 10.5465C11.2395 10.5752 11.3684 10.6038 11.5116 10.6038C14.3035 10.6038 17.0955 10.6181 19.8875 10.5895C20.1023 10.5895 20.4316 10.475 20.5318 10.3031C22.1354 7.64001 23.9681 5.16301 26.3019 2.74329C25.7149 2.81488 25.3426 2.85783 24.9704 2.9151C22.5077 3.24441 20.2025 4.01758 17.9832 5.12006C17.883 5.17733 17.7685 5.22028 17.6539 5.26324C17.1528 5.50664 16.7376 5.37778 16.5228 4.89097C16.3081 4.4328 16.5085 4.0319 16.9524 3.83145C18.2123 3.27305 19.458 2.64306 20.7752 2.22784C31.8287 -1.23709 43.1541 2.77192 49.4683 12.4795C50.5708 14.1833 51.301 16.1305 52.1601 17.9919C52.3319 18.3641 52.4894 18.5932 52.9332 18.6934C54.7946 19.1086 55.9686 20.5834 55.983 22.4877C55.9973 24.8072 55.9973 27.1124 55.983 29.4319C55.9686 31.3934 54.8232 32.8395 52.9046 33.2834C52.5037 33.3693 52.3176 33.5411 52.1887 33.942C50.7426 38.2374 48.2942 41.8741 44.8723 44.8666C44.0848 45.5538 43.6839 45.6254 43.2973 45.1529C42.9107 44.6947 43.0682 44.3225 43.8271 43.6209C44.543 42.9623 45.2445 42.275 46.0893 41.4732C45.7313 41.4303 45.5309 41.3873 45.3448 41.3873C42.6244 41.3873 39.904 41.373 37.1836 41.4016C36.9402 41.4016 36.5679 41.5162 36.4677 41.688C34.8641 44.3511 33.0314 46.8281 30.9123 49.2478C31.8 49.1047 32.7021 48.9901 33.5754 48.804C35.852 48.3172 37.9997 47.4724 40.0328 46.3413C40.7344 45.9404 41.1926 45.9977 41.436 46.5131C41.7366 47.1574 41.3214 47.4581 40.8203 47.7445C30.2394 53.8439 16.4799 51.1521 8.92002 41.5162C7.1446 39.2396 5.75576 36.7626 4.83941 34.0136C4.69623 33.584 4.48147 33.3836 4.02329 33.2691C2.20492 32.8538 1.03085 31.3648 1.01653 29.5034C1.00221 27.141 0.987897 24.7785 1.01653 22.4161C1.03085 20.5977 2.21924 19.1086 3.99466 18.7077C4.49578 18.5932 4.69623 18.3641 4.85373 17.9203C6.48597 13.1954 9.27796 9.30089 13.2154 6.22254C13.6163 5.90754 14.0172 5.75005 14.4467 6.07936C14.8906 6.40867 14.819 6.95275 14.3179 7.41092C13.3156 8.32727 12.3134 9.24361 11.3254 10.1743C11.2109 10.2602 11.1536 10.389 11.0247 10.5465ZM28.4926 20.2111C20.718 20.2111 12.9433 20.2111 5.16873 20.2111C3.50785 20.2111 2.5915 21.1132 2.5915 22.774C2.5915 24.9504 2.57718 27.1124 2.5915 29.2887C2.5915 30.8636 3.50785 31.78 5.08282 31.78C20.6893 31.78 36.2815 31.78 51.888 31.78C53.4916 31.78 54.3937 30.8493 54.3937 29.2314C54.3937 27.1839 54.3937 25.1222 54.3937 23.0747C54.3937 21.0272 53.5776 20.2111 51.5444 20.2111C43.8557 20.2111 36.1813 20.2111 28.4926 20.2111ZM18.4128 18.5073C25.2281 18.5073 31.7857 18.5073 38.5724 18.5073C37.6274 16.4312 36.754 14.484 35.8377 12.551C35.7518 12.3792 35.4225 12.2217 35.222 12.2217C30.7405 12.2074 26.259 12.2074 21.7775 12.2217C21.5627 12.2217 21.2334 12.3792 21.1618 12.551C20.2312 14.484 19.3578 16.4312 18.4128 18.5073ZM18.3985 33.4552C19.3578 35.5599 20.2598 37.5358 21.1905 39.5117C21.262 39.6548 21.577 39.7551 21.7918 39.7551C26.2447 39.7694 30.7119 39.7694 35.1647 39.7407C35.4225 39.7407 35.7804 39.4973 35.9093 39.2683C36.3674 38.4378 36.797 37.5787 37.1692 36.7054C37.6131 35.6458 37.9997 34.572 38.4435 33.4409C31.7428 33.4552 25.1995 33.4552 18.3985 33.4552ZM37.5701 39.7694C37.8994 39.7694 38.1572 39.7694 38.4149 39.7694C40.6628 39.7694 42.9107 39.6262 45.13 39.8123C46.9484 39.9698 48.0222 39.3542 48.7238 37.7362C49.3395 36.3188 50.041 34.9586 50.6997 33.584C50.4992 33.4838 50.4562 33.4409 50.4276 33.4409C47.1059 33.4409 43.7984 33.4266 40.4767 33.4409C40.3049 33.4409 40.0615 33.6986 39.9755 33.8847C39.6462 34.6722 39.4028 35.5026 39.0735 36.2901C38.6153 37.4356 38.0999 38.5667 37.5701 39.7694ZM50.5708 18.5646C50.5565 18.4071 50.5708 18.3212 50.5565 18.2639C49.8406 16.2021 48.8526 14.2835 47.564 12.5224C47.4352 12.3363 47.0915 12.2361 46.8481 12.2217C43.9416 12.2074 41.0351 12.2074 38.1142 12.2074C37.9424 12.2074 37.7849 12.2504 37.6847 12.2647C38.4722 14.2692 39.231 16.2164 40.0185 18.1637C40.0901 18.3355 40.3335 18.5359 40.5053 18.5359C43.8414 18.5789 47.1774 18.5646 50.5708 18.5646ZM6.25689 18.4357C6.47165 18.5216 6.51461 18.5502 6.55756 18.5502C9.85068 18.5502 13.1438 18.5646 16.4369 18.5359C16.6374 18.5359 16.9237 18.2353 17.0096 18.0062C17.4535 16.9466 17.8114 15.8728 18.2553 14.8133C18.5989 13.9685 19.0141 13.1381 19.4294 12.2074C19.0714 12.2074 18.8137 12.2074 18.556 12.2074C16.3367 12.2074 14.1031 12.3649 11.9125 12.1645C10.0654 11.9927 8.96297 12.6226 8.26139 14.2692C7.64572 15.6867 6.92983 17.0469 6.25689 18.4357ZM6.32847 33.4266C7.07301 35.5886 8.04662 37.4928 9.26365 39.2683C9.52137 39.6548 9.80772 39.7837 10.2516 39.7837C13.0865 39.7694 15.9215 39.7694 18.7707 39.7694C18.9712 39.7694 19.1716 39.7407 19.3148 39.7264C18.513 37.6933 17.7398 35.7031 16.9237 33.7272C16.8521 33.5697 16.5228 33.4409 16.3081 33.4409C14.9049 33.4122 13.4874 33.4266 12.0843 33.4266C10.2086 33.4266 8.33298 33.4266 6.32847 33.4266ZM30.8837 2.82919C33.0027 5.14869 34.8497 7.62569 36.4533 10.2888C36.5679 10.4893 36.9688 10.5895 37.2265 10.6038C39.9183 10.6324 42.61 10.6181 45.3161 10.6181C45.5166 10.6181 45.7027 10.5895 46.0463 10.5609C41.8655 5.99345 36.8972 3.40191 30.8837 2.82919ZM11.0104 41.4016C13.874 45.382 22.4791 49.7346 26.1731 49.1333C23.9968 46.8854 22.1498 44.4084 20.5462 41.7453C20.4316 41.5448 20.045 41.4303 19.7873 41.4159C18.1407 41.3873 16.4942 41.4016 14.8476 41.4016C13.602 41.4016 12.3706 41.4016 11.0104 41.4016ZM28.5212 2.92942C26.5597 4.51871 23.3095 8.55635 22.3645 10.5465C26.4594 10.5465 30.54 10.5465 34.7066 10.5465C32.9455 7.68296 30.9553 5.14869 28.5212 2.92942ZM22.2786 41.4446C24.054 44.3368 26.0442 46.8711 28.4926 49.0903C30.9553 46.8567 32.9455 44.3082 34.7066 41.4446C30.5257 41.4446 26.4738 41.4446 22.2786 41.4446Z" stroke="white" stroke-width="0.4" mask="url(#path-1-outside-1_22_4)"/>
</svg>
