<svg width="50" height="50" viewBox="0 0 50 50" fill="none" xmlns="http://www.w3.org/2000/svg">
<path d="M11.7093 30.125C11.5982 30.0694 11.5843 30.0556 11.5565 30.0556C9.63986 29.9167 9.61209 29.9306 9.2232 28.0972C9.0982 27.5278 8.80653 27.3056 8.32042 27.0278C7.51486 26.5833 6.87598 26.6528 6.20931 27.2361C6.00098 27.4167 5.75098 27.6389 5.50098 27.6667C5.12598 27.7083 4.63986 27.7222 4.37598 27.5278C3.70931 27 3.15375 26.3333 2.54264 25.7361C2.13986 25.3472 2.13986 24.9306 2.40375 24.4861C2.52875 24.2917 2.62597 24.0694 2.77875 23.9028C3.44542 23.2083 3.41764 22.5139 2.98709 21.6806C2.75097 21.2222 2.50097 20.9722 2.01486 20.8611C-0.0545806 20.4028 0.0148638 20.75 0.000974883 18.2917C-0.012914 15.9306 0.0981971 16.3333 1.88986 15.8889C2.18153 15.8194 2.58431 15.7778 2.70931 15.5833C3.01486 15.0833 3.20931 14.5 3.41764 13.9444C3.44542 13.8611 3.32042 13.6944 3.23709 13.5833C2.95931 13.1389 2.65375 12.6944 2.37598 12.2361C2.12598 11.8194 2.13986 11.4028 2.50097 11.0417C3.11209 10.4306 3.70931 9.83333 4.30653 9.22222C4.69542 8.81944 5.11209 8.83333 5.55653 9.09722C5.73709 9.20833 5.93153 9.29167 6.08431 9.44444C6.82042 10.1667 7.57042 10.0972 8.43153 9.65278C8.8482 9.43056 9.08431 9.20833 9.15375 8.76389C9.23709 8.30556 9.32042 7.86111 9.44542 7.40278C9.57042 6.91667 9.91764 6.63889 10.4176 6.73611C10.9176 6.83333 11.1538 7.20833 11.0704 7.72222C10.9176 8.56945 10.7788 9.41667 10.5149 10.2222C10.4176 10.5139 10.0565 10.7778 9.76486 10.9306C9.11209 11.2639 8.43153 11.5694 7.7232 11.7778C7.37598 11.8889 6.91764 11.8472 6.57042 11.7083C6.07042 11.5 5.62598 11.1389 5.13986 10.8333C4.80653 11.1806 4.50098 11.5139 4.11209 11.9167C4.9732 12.9306 5.32042 13.9167 4.68153 15.4861C4.02875 17.0556 3.0982 17.5139 1.68153 17.625C1.68153 18.1528 1.68153 18.5833 1.68153 19.0694C2.23709 19.1944 2.76486 19.3472 3.30653 19.4306C3.83431 19.5139 4.0982 19.8333 4.26486 20.3056C4.50098 20.9583 4.75098 21.5972 5.05653 22.2222C5.29264 22.6944 5.27875 23.0833 4.98709 23.5139C4.66764 23.9722 4.38986 24.4444 4.08431 24.9444C4.43153 25.2778 4.73709 25.5833 5.08431 25.9306C5.58431 25.6111 6.08431 25.3333 6.55653 25C6.9732 24.7222 7.3482 24.7361 7.79264 24.9583C8.40375 25.2639 9.05653 25.5278 9.70931 25.75C10.2232 25.9306 10.5288 26.2083 10.5982 26.7639C10.6676 27.2917 10.8204 27.7917 10.9454 28.3194C11.1954 28.3194 11.4038 28.3194 11.626 28.3194C11.626 26.6806 11.626 25.0694 11.626 23.5C10.8343 23.2361 10.001 23.0833 9.27875 22.7222C6.11209 21.0833 5.75098 16.5417 8.5982 14.3889C8.65375 14.3472 8.70931 14.3194 8.76486 14.2778C9.20931 13.9444 9.63986 13.9306 9.98709 14.375C10.3343 14.8194 10.2232 15.25 9.79264 15.5833C9.11209 16.1111 8.62598 16.75 8.43153 17.6111C7.95931 19.6806 9.44542 21.5972 11.6538 21.6389C11.6538 21.3611 11.6538 21.0972 11.6538 20.8194C11.6538 15.4028 11.6538 9.98611 11.6538 4.56944C11.6538 1.70833 13.376 0 16.2371 0C22.0704 0 27.9038 0 33.7371 0C36.6121 0 38.3204 1.70833 38.3204 4.56944C38.3204 9.43056 38.3204 14.2917 38.3204 19.1528C38.3204 19.4028 38.3204 19.6528 38.3204 20C38.7232 20 39.0843 20.0139 39.4454 20C40.0982 19.9722 40.5149 20.2361 40.5982 20.9167C40.6121 21.0278 40.6676 21.1389 40.6676 21.25C40.6121 22.5972 41.5843 23.0139 42.6121 23.3472C42.751 23.3889 42.9593 23.3056 43.0982 23.2222C43.501 22.9861 43.8899 22.75 44.2649 22.4861C44.8204 22.0833 45.3065 22.0833 45.7926 22.6111C46.3343 23.1806 46.8899 23.7361 47.4593 24.2778C47.8621 24.6667 47.8621 25.0833 47.5982 25.5278C47.501 25.6806 47.4176 25.8611 47.2926 25.9861C46.5843 26.75 46.5288 27.5417 47.0565 28.4583C47.2788 28.8472 47.501 29.0278 47.9038 29.125C50.0288 29.625 49.9732 29.1944 49.9732 31.7083C49.9732 34.0278 49.9315 33.6528 48.0843 34.1111C47.7926 34.1806 47.3899 34.2083 47.2649 34.4028C46.9593 34.9028 46.7232 35.4722 46.5704 36.0556C46.5149 36.25 46.8065 36.5278 46.9454 36.7639C47.1121 37.0417 47.2926 37.3194 47.4732 37.5833C47.876 38.1528 47.8343 38.6389 47.3065 39.1111C46.7649 39.6111 46.251 40.1389 45.7371 40.6806C45.2788 41.1806 44.7926 41.1945 44.2649 40.8195C44.1538 40.7361 44.0149 40.6806 43.9176 40.5972C43.1676 39.9167 42.4038 39.8333 41.5149 40.3611C41.1538 40.5833 40.876 40.75 40.8065 41.1806C40.7371 41.6528 40.626 42.1389 40.501 42.6111C40.376 43.1111 40.0288 43.375 39.5149 43.2639C39.0149 43.1667 38.7788 42.7917 38.8621 42.2778C39.0149 41.4306 39.1676 40.5833 39.4176 39.7778C39.5149 39.4861 39.876 39.2222 40.1676 39.0695C40.8204 38.7361 41.501 38.4444 42.2093 38.2222C42.5426 38.125 42.9871 38.125 43.2926 38.2639C43.8204 38.4861 44.2788 38.8611 44.7788 39.1806C45.1121 38.8333 45.4315 38.5139 45.7926 38.1389C45.5288 37.7222 45.251 37.2361 44.9315 36.7917C44.626 36.3611 44.626 35.9722 44.8621 35.5C45.1676 34.9028 45.4176 34.2778 45.626 33.6528C45.8065 33.1111 46.0843 32.7917 46.6815 32.6944C47.1954 32.625 47.7093 32.4722 48.2371 32.3472C48.2371 31.8611 48.2371 31.4167 48.2371 30.9306C47.6954 30.8056 47.1538 30.6528 46.6121 30.5694C46.1121 30.4861 45.8482 30.2222 45.6815 29.7639C45.4315 29.0694 45.0704 28.4167 44.8621 27.7083C44.751 27.3611 44.7788 26.9028 44.9315 26.5694C45.1538 26.0417 45.5149 25.5833 45.8482 25.0694C45.501 24.7361 45.1954 24.4306 44.8482 24.0833C44.3482 24.4028 43.8482 24.6944 43.376 25.0139C42.9593 25.2917 42.5843 25.2778 42.1399 25.0556C41.5149 24.75 40.876 24.4861 40.2232 24.2639C39.7093 24.0833 39.4038 23.8056 39.3204 23.2361C39.251 22.7083 39.0982 22.2083 38.9871 21.6806C38.7371 21.6806 38.5288 21.6806 38.2926 21.6806C38.2926 23.3333 38.2926 24.9722 38.2926 26.625C40.3343 26.7778 41.876 27.6944 42.7788 29.5417C43.7926 31.625 43.126 34.2639 41.2649 35.6389C40.7926 35.9861 40.3621 36.1111 39.9315 35.6111C39.5843 35.2083 39.7093 34.7639 40.2371 34.3194C42.1538 32.7083 42.001 29.9583 39.9038 28.7778C39.4315 28.5139 38.876 28.4167 38.2649 28.2083C38.2649 28.625 38.2649 28.9028 38.2649 29.1806C38.2649 34.5972 38.2649 40.0139 38.2649 45.4306C38.2649 48.2917 36.5565 49.9861 33.6815 50C27.8482 50 22.0149 50 16.1815 50C13.3065 50 11.5982 48.2917 11.5982 45.4306C11.5982 40.5694 11.5982 35.7083 11.5982 30.8472C11.7093 30.6389 11.7093 30.375 11.7093 30.125ZM13.376 24.9583C13.376 31.8056 13.376 38.6528 13.376 45.5139C13.376 47.3889 14.3343 48.3611 16.1815 48.3611C22.0843 48.3611 27.9871 48.3611 33.8899 48.3611C35.7371 48.3611 36.7093 47.3889 36.7093 45.5139C36.7093 31.8611 36.7093 18.2083 36.7093 4.55556C36.7093 2.65278 35.751 1.70833 33.8343 1.70833C27.9732 1.70833 22.126 1.70833 16.2649 1.70833C14.3204 1.70833 13.376 2.66667 13.376 4.625C13.376 11.4028 13.376 18.1806 13.376 24.9583Z" fill="white"/>
<path d="M41.6954 7.56938C41.751 7.0555 42.001 6.69438 42.5565 6.70827C43.0565 6.72216 43.376 7.04161 43.3482 7.5555C43.3204 8.06938 43.0149 8.44438 42.4871 8.44438C42.001 8.4305 41.7093 8.11105 41.6954 7.56938Z" fill="white"/>
<path d="M41.6954 10.9305C41.7371 10.4167 42.001 10.0555 42.5426 10.0555C43.0426 10.0555 43.3621 10.3889 43.3482 10.8889C43.3343 11.4028 43.0288 11.7778 42.501 11.7778C42.001 11.7778 41.7232 11.4583 41.6954 10.9305Z" fill="white"/>
<path d="M43.376 14.2083C43.3065 14.7083 43.0565 15.1111 42.5149 15.1111C42.0149 15.1111 41.6954 14.8194 41.7093 14.2916C41.7093 13.7638 41.9871 13.4027 42.5288 13.3888C43.0426 13.375 43.3065 13.7083 43.376 14.2083Z" fill="white"/>
<path d="M8.36207 35.6528C8.34819 36.2222 7.9593 36.6111 7.47319 36.5833C6.97319 36.5555 6.72319 36.2778 6.7093 35.7778C6.69541 35.2639 7.07041 34.8611 7.54263 34.875C8.0843 34.8889 8.30652 35.2361 8.36207 35.6528Z" fill="white"/>
<path d="M7.45931 39.9167C6.98708 39.9028 6.69542 39.625 6.70931 39.0833C6.7232 38.5833 6.9732 38.2361 7.50097 38.2083C8.02875 38.1806 8.32042 38.5 8.36208 39.0139C8.40375 39.5 8.00097 39.9167 7.45931 39.9167Z" fill="white"/>
<path d="M8.36209 42.2778C8.38987 42.8333 8.00098 43.25 7.52876 43.25C7.02876 43.25 6.73709 43 6.72321 42.5C6.70932 41.9722 6.93154 41.5833 7.50098 41.5417C8.02876 41.5139 8.27876 41.8472 8.36209 42.2778Z" fill="white"/>
<path d="M18.6676 25.0555C19.5843 25.9444 20.4315 26.7638 21.2787 27.5833C21.8065 28.0972 21.8621 28.611 21.4454 28.9583C20.9454 29.3749 20.5149 29.1805 20.1121 28.7638C19.126 27.7638 18.1121 26.7777 17.126 25.7638C16.5704 25.2083 16.5704 24.8333 17.1121 24.2777C18.1121 23.2499 19.126 22.2499 20.1537 21.236C20.6399 20.7499 21.126 20.7083 21.4732 21.111C21.876 21.5694 21.7371 21.9999 21.3343 22.3888C20.4871 23.2638 19.626 24.111 18.6676 25.0555Z" fill="white"/>
<path d="M31.4454 25.0139C30.5149 24.1111 29.6676 23.3056 28.8343 22.4861C28.3065 21.9583 28.2371 21.4722 28.6537 21.1111C29.1399 20.6806 29.5843 20.8611 29.9871 21.2778C30.9732 22.2778 31.9871 23.2639 32.9732 24.2778C33.5287 24.8472 33.5426 25.2083 33.001 25.7639C32.001 26.7917 30.9871 27.8056 29.9593 28.8056C29.4732 29.2917 28.9732 29.3333 28.626 28.9444C28.1954 28.4583 28.376 28.0139 28.7926 27.6111C29.6399 26.7917 30.4732 25.9583 31.4454 25.0139Z" fill="white"/>
<path d="M23.3065 28.5139C23.5426 27.5834 23.7371 26.8195 23.9315 26.0695C24.2787 24.6528 24.626 23.2361 24.9871 21.8334C25.1815 21.0695 25.5982 20.7361 26.0982 20.9167C26.7371 21.1528 26.751 21.625 26.5982 22.2222C26.0982 24.1667 25.6399 26.125 25.1537 28.0834C25.0982 28.3056 25.0704 28.5973 24.9176 28.7223C24.6676 28.9306 24.2926 29.1806 24.0149 29.1389C23.7371 29.0834 23.5149 28.7084 23.3065 28.5139Z" fill="white"/>
<path d="M25.0426 3.36115C25.8065 3.36115 26.5704 3.34726 27.3343 3.36115C28.001 3.37504 28.4038 3.70838 28.3621 4.22226C28.3065 4.81949 27.9176 5.02782 27.3621 5.02782C25.8204 5.02782 24.2649 5.02782 22.7232 5.02782C22.1538 5.02782 21.751 4.79171 21.7371 4.20838C21.7371 3.62504 22.1399 3.36115 22.6954 3.36115C23.4732 3.36115 24.2649 3.36115 25.0426 3.36115Z" fill="white"/>
</svg>
