<svg width="47" height="42" viewBox="0 0 47 42" fill="none" xmlns="http://www.w3.org/2000/svg">
<path d="M1.75864 37.2866C2.96965 36.0808 4.18892 34.8615 5.41346 33.637L5.4143 33.6361C6.75857 32.2919 8.10922 30.9412 9.46325 29.5941L9.46415 29.5932C9.79761 29.2597 10.1178 28.9249 10.4341 28.5942C11.1348 27.8614 11.8166 27.1485 12.5818 26.5139L12.5822 26.5136C13.1449 26.046 13.4811 25.5199 13.6364 24.9267C13.7881 24.3467 13.7564 23.7414 13.6545 23.1298L13.5849 22.712H13.1613H13.1358H13.1103H13.0847H13.0592H13.0337H13.0082H12.9827H12.9571H12.9316H12.9061H12.8806H12.8551H12.8295H12.804H12.7785H12.753H12.7275H12.7019H12.6764H12.6509H12.6254H12.5998H12.5743H12.5488H12.5233H12.4977H12.4722H12.4467H12.4212H12.3956H12.3701H12.3446H12.3191H12.2935H12.268H12.2425H12.2169H12.1914H12.1659H12.1404H12.1148H12.0893H12.0638H12.0382H12.0127H11.9872H11.9616H11.9361H11.9106H11.885H11.8595H11.834H11.8084H11.7829H11.7573H11.7318H11.7063H11.6807H11.6552H11.6297H11.6041H11.5786H11.553H11.5275H11.502H11.4764H11.4509H11.4253H11.3998H11.3742H11.3487H11.3232H11.2976H11.2721H11.2465H11.221H11.1954H11.1699H11.1443H11.1188H11.0932H11.0677H11.0421H11.0166H10.991H10.9655H10.9399H10.9144H10.8888H10.8633H10.8377H10.8122H10.7866H10.7611H10.7355H10.71H10.6844H10.6588H10.6333H10.6077H10.5822H10.5566H10.5311H10.5055H10.4799H10.4544H10.4288H10.4033H10.3777H10.3521H10.3266H10.301H10.2754H10.2499H10.2243H10.1987H10.1732H10.1476H10.122H10.0965H10.0709H10.0453H10.0198H9.99421H9.96864H9.94306H9.91749H9.89192H9.86635H9.84077H9.8152H9.78963H9.76405H9.73848H9.7129H9.68732H9.66175H9.63617H9.61059H9.58501H9.55943H9.53385H9.50827H9.48269H9.45711H9.43153H9.40594H9.38036H9.35478H9.32919H9.30361H9.27802H9.25243H9.22685H9.20126H9.17567H9.15008H9.12449H9.0989H9.07331H9.04772H9.02213H8.99654H8.97094H8.94535H8.91976H8.89416H8.86856H8.84297H8.81737H8.79177H8.76618H8.74058H8.71498H8.68938H8.66378H8.63818H8.61257H8.58697H8.56137H8.53576H8.51016H8.48455H8.45895H8.43334H8.40773H8.38213H8.35652H8.33091H8.3053H8.27969H8.25408H8.22847H8.20285H8.17724H8.15163H8.12601H8.1004H8.07478H8.04916H8.02355H7.99793H7.97231H7.94669H7.92107H7.89545H7.86983H7.8442H7.81858H7.79296H7.76733H7.74171H7.71608H7.69046H7.66483H7.6392H7.61357H7.58794H7.56231H7.53668H7.51105H7.48542H7.45979H7.43415H7.40852H7.38288H7.35725H7.33161H7.30597H7.28033H7.2547H7.22906H7.20342H7.17778H7.15213H7.12649H7.10085H7.0752H7.04956H7.02391H6.99827H6.97262H6.94697H6.92132H6.89567H6.87002H6.84437H6.81872H6.79307H6.76742H6.74176H6.71611H6.69045H6.66479H6.63914H6.61348H6.58782H6.56216H6.5365H6.51084H6.48518H6.45951H6.43385H6.40819H6.38252H6.35686H6.33119H6.30552H6.27985H6.25418H6.22851H6.20284H6.17717H6.1515H6.12582H6.10015H6.07448H6.0488H6.02312H5.99745H5.97177H5.94609H5.92041H5.89473H5.86905H5.84336H5.81768H5.792H5.76631H5.74062H5.71494H5.68925H5.66356H5.63787H5.61218H5.58649H5.5608H5.53511H5.50941H5.48372H5.45802H5.43233H5.40663H5.38093H5.35523H5.32953H5.30383H5.27813H5.25243H5.22672H5.20102H5.17531H5.14961H5.1239H5.09819H5.07248H5.04678H5.02106H4.99535H4.96964H4.94393H4.91821H4.8925H4.86678H4.84107H4.81535H4.78963H4.76391H4.73819H4.71247H4.68674H4.66102H4.6353H4.60957H4.58385H4.55812H4.53239H4.50666H4.48093H4.4552H4.42947H4.40374H4.378H4.35227H4.32653H4.30079H4.27506H4.24932H4.22358H4.19784H4.1721H4.14635H4.12061H4.09487H4.06912H4.04338H4.01763H3.99188H3.96613H3.94038H3.91463H3.88888H3.86312H3.83737H3.81161H3.78586H3.7601H3.73434H3.70858H3.68282H3.65706H3.6313H3.60554H3.57977H3.55401H3.52824H3.50248H3.47671H3.45094H3.42517H3.3994H3.37362H3.34785H3.32208H3.2963H3.27052H3.24475H3.21897H3.19319H3.16741H3.14163H3.11584H3.09006H3.06428H3.03849H3.0127H2.98692H2.96113H2.93534H2.90955H2.88375H2.85796H2.83217H2.80637H2.78058H2.75478H2.72898H2.70318H2.67738H2.65158H2.62578H2.59997H2.57417H2.54836H2.52255H2.49675H2.47094H2.44513H2.41931H2.3935H2.36769H2.34187H2.31606H2.29024H2.26442H2.2386H2.21278H2.18696H2.16114H2.13532H2.10949H2.08367H2.05784H2.03201H2.00618H1.98035H1.95452H1.92869H1.90285H1.87702H1.85118H1.82535H1.79951H1.77367H1.74783H1.72199H1.69614H1.6703H1.64445H1.61861H1.59276H1.56691H1.54106H1.51521H1.48936H1.46351H1.43765H1.4118H1.38594H1.36008H1.33422H1.30836H1.2825H1.25664H1.23078H1.20491H1.17905H1.15318H1.12731H1.10144H1.07557H1.0497H1.02383H0.997951H0.972076H0.946199H0.920321H0.894442H0.868562H0.84268H0.816797H0.790913H0.765028H0.739142H0.713254H0.687366H0.661476H0.635584H0.609692H0.583798H0.557903H0.532007H0.512953C0.500285 15.292 0.500006 7.92049 0.5 0.5H0.500262H0.538748H0.577235H0.615722H0.654211H0.6927H0.73119H0.76968H0.808171H0.846663H0.885155H0.923648H0.962142H1.00064H1.03913H1.07763H1.11613H1.15462H1.19312H1.23162H1.27012H1.30862H1.34712H1.38562H1.42413H1.46263H1.50113H1.53964H1.57814H1.61665H1.65516H1.69366H1.73217H1.77068H1.80919H1.8477H1.88622H1.92473H1.96324H2.00176H2.04027H2.07879H2.1173H2.15582H2.19434H2.23286H2.27138H2.3099H2.34842H2.38694H2.42546H2.46399H2.50251H2.54104H2.57957H2.61809H2.65662H2.69515H2.73368H2.77221H2.81074H2.84927H2.88781H2.92634H2.96488H3.00341H3.04195H3.08049H3.11902H3.15756H3.1961H3.23464H3.27319H3.31173H3.35027H3.38882H3.42736H3.46591H3.50446H3.54301H3.58156H3.62011H3.65866H3.69721H3.73576H3.77432H3.81287H3.85143H3.88998H3.92854H3.9671H4.00566H4.04422H4.08278H4.12134H4.15991H4.19847H4.23704H4.2756H4.31417H4.35274H4.39131H4.42988H4.46845H4.50702H4.54559H4.58417H4.62274H4.66132H4.6999H4.73847H4.77705H4.81563H4.85421H4.8928H4.93138H4.96996H5.00855H5.04714H5.08572H5.12431H5.1629H5.20149H5.24008H5.27868H5.31727H5.35586H5.39446H5.43306H5.47165H5.51025H5.54885H5.58746H5.62606H5.66466H5.70327H5.74187H5.78048H5.81909H5.85769H5.8963H5.93491H5.97353H6.01214H6.05075H6.08937H6.12799H6.1666H6.20522H6.24384H6.28246H6.32109H6.35971H6.39833H6.43696H6.47559H6.51421H6.55284H6.59147H6.63011H6.66874H6.70737H6.74601H6.78464H6.82328H6.86192H6.90056H6.9392H6.97784H7.01648H7.05513H7.09377H7.13242H7.17107H7.20972H7.24837H7.28702H7.32567H7.36433H7.40298H7.44164H7.4803H7.51896H7.55762H7.59628H7.63494H7.6736H7.71227H7.75094H7.7896H7.82827H7.86694H7.90561H7.94429H7.98296H8.02164H8.06031H8.09899H8.13767H8.17635H8.21503H8.25372H8.2924H8.33109H8.36977H8.40846H8.44715H8.48584H8.52453H8.56323H8.60192H8.64062H8.67931H8.71801H8.75671H8.79541H8.83412H8.87282H8.91153H8.95023H8.98894H9.02765H9.06636H9.10507H9.14379H9.1825H9.22122H9.25994H9.29866H9.33738H9.3761H9.41482H9.45355H9.49227H9.531H9.56973H9.60846H9.64719H9.68592H9.72466H9.76339H9.80213H9.84087H9.87961H9.91835H9.95709H9.99584H10.0346H10.0733H10.1121H10.1508H10.1896H10.2283H10.2671H10.3058H10.3446H10.3834H10.4221H10.4609H10.4996H10.5384H10.5772H10.6159H10.6547H10.6935H10.7323H10.771H10.8098H10.8486H10.8874H10.9261H10.9649H11.0037H11.0425H11.0813H11.1201H11.1588H11.1976H11.2364H11.2752H11.314H11.3528H11.3916H11.4304H11.4692H11.508H11.5468H11.5856H11.6244H11.6632H11.702H11.7409H11.7797H11.8185H11.8573H11.8961H11.9349H11.9738H12.0126H12.0514H12.0902H12.1291H12.1679H12.2067H12.2456H12.2844H12.3232H12.3621H12.4009H12.4397H12.4786H12.5174H12.5563H12.5951H12.634H12.6728H12.7117H12.7505H12.7894H12.8282H12.8671H12.906H12.9448H12.9837H13.0226H13.0614H13.1003H13.1392H13.178H13.2169H13.2558H13.2947H13.3335H13.3724H13.4113H13.4502H13.4891H13.528H13.5668H13.6057H13.6446H13.6835H13.7224H13.7613H13.8002H13.8391H13.878H13.9169H13.9558H13.9947H14.0336H14.0726H14.1115H14.1504H14.1893H14.2282H14.2671H14.3061H14.345H14.3839H14.4228H14.4618H14.5007H14.5396H14.5786H14.6175H14.6564H14.6954H14.7343H14.7733H14.8122H14.8512H14.8901H14.9291H14.968H15.007H15.0459H15.0849H15.1238H15.1628H15.2018H15.2407H15.2797H15.3187H15.3576H15.3966H15.4356H15.4746H15.5136H15.5525H15.5915H15.6305H15.6695H15.7085H15.7475H15.7865H15.8255H15.8644H15.9034H15.9424H15.9814H16.0204H16.0595H16.0985H16.1375H16.1765H16.2155H16.2545H16.2935H16.3325H16.3716H16.4106H16.4496H16.4886H16.5277H16.5667H16.6057H16.6448H16.6838H16.7228H16.7619H16.8009H16.84H16.879H16.9181H16.9571H16.9962H17.0352H17.0743H17.1133H17.1524H17.1915H17.2305H17.2696H17.3086H17.3477H17.3868H17.4259H17.4649H17.504H17.5431H17.5822H17.6213H17.6604H17.6994H17.7385H17.7776H17.8167H17.8558H17.8949H17.934H17.9731H18.0122H18.0513H18.0904H18.1295H18.1687H18.2078H18.2469H18.286H18.3251H18.3643H18.4034H18.4425H18.4816H18.5208H18.5599H18.599H18.6382H18.6773H18.7165H18.7556H18.7948H18.8339H18.8731H18.9122H18.9514H18.9905H19.0297H19.0688H19.108H19.1472H19.1863H19.2255H19.2647H19.3039H19.343H19.3525V0.501V0.502411V0.503823V0.505234V0.506645V0.508056V0.509466V0.510877V0.512287V0.513698V0.515108V0.516518V0.517928V0.519338V0.520747V0.522157V0.523566V0.524975V0.526384V0.527793V0.529202V0.530611V0.532019V0.533427V0.534836V0.536243V0.537651V0.539059V0.540467V0.541874V0.543281V0.544688V0.546095V0.547502V0.548909V0.550315V0.551721V0.553127V0.554533V0.555939V0.557344V0.55875V0.560155V0.56156V0.562965V0.56437V0.565774V0.567178V0.568583V0.569987V0.57139V0.572794V0.574197V0.575601V0.577004V0.578406V0.579809V0.581212V0.582614V0.584016V0.585418V0.586819V0.588221V0.589622V0.591023V0.592424V0.593825V0.595225V0.596625V0.598026V0.599425V0.600825V0.602224V0.603624V0.605023V0.606421V0.60782V0.609218V0.610616V0.612014V0.613412V0.614809V0.616207V0.617604V0.619V0.620397V0.621793V0.623189V0.624585V0.625981V0.627376V0.628771V0.630166V0.631561V0.632955V0.63435V0.635744V0.637137V0.638531V0.639924V0.641317V0.64271V0.644102V0.645495V0.646887V0.648278V0.64967V0.651061V0.652452V0.653843V0.655233V0.656623V0.658013V0.659403V0.660793V0.662182V0.663571V0.664959V0.666348V0.667736V0.669123V0.670511V0.671898V0.673285V0.674672V0.676058V0.677445V0.67883V0.680216V0.681601V0.682986V0.684371V0.685756V0.68714V0.688524V0.689907V0.691291V0.692674V0.694056V0.695439V0.696821V0.698203V0.699584V0.700966V0.702347V0.703727V0.705108V0.706488V0.707867V0.709247V0.710626V0.712005V0.713383V0.714761V0.716139V0.717517V0.718894V0.722544C19.3525 9.54154 19.3525 18.361 19.3664 27.1943L19.8664 27.1936M1.75864 37.2866L19.8525 0.5V0.718894V0.722544C19.8525 9.5416 19.8525 18.3607 19.8664 27.1936M1.75864 37.2866C3.11724 38.6452 4.4307 39.9595 5.7499 41.2888M1.75864 37.2866C1.64043 37.4043 1.5223 37.5218 1.40425 37.6393L6.26267 41.4885M19.8664 27.1936C19.8664 27.7051 19.7143 28.0369 19.3548 28.3963M19.8664 27.1936H19.3664C19.3664 27.3977 19.3364 27.538 19.2865 27.6535C19.2358 27.7707 19.1515 27.8926 19.0013 28.0428M19.3548 28.3963L19.0018 28.0422C19.0017 28.0424 19.0015 28.0426 19.0013 28.0428M19.3548 28.3963C16.443 31.299 13.5373 34.2078 10.6295 37.1186C9.17474 38.5749 7.71947 40.0317 6.26267 41.4885M19.3548 28.3963L6.26267 41.4885M19.0013 28.0428C16.0892 30.9457 13.1829 33.855 10.275 36.7659C8.82044 38.2221 7.36545 39.6786 5.90912 41.1349L6.26267 41.4885M19.0013 28.0428L6.26267 41.4885M6.26267 41.4885L5.90912 41.1349C5.85716 41.1869 5.80361 41.2383 5.7499 41.2888M6.26267 41.4885C6.15525 41.5959 6.04357 41.6991 5.94417 41.7909C5.87203 41.8575 5.80636 41.9182 5.75349 41.9702L6.09245 41.6342C5.9782 41.5189 5.86403 41.4038 5.7499 41.2888M6.26267 41.4885L5.38523 41.6312C5.44793 41.5686 5.52715 41.4954 5.60453 41.424C5.61461 41.4146 5.62467 41.4053 5.63465 41.3961C5.6728 41.3608 5.71139 41.325 5.7499 41.2888" stroke="white"/>
<path d="M39.1544 26.4881L39.1538 26.4887C36.6313 28.9242 34.1514 31.4118 31.6703 33.9007C30.606 34.9683 29.5415 36.0361 28.4734 37.1001L39.1544 26.4881ZM39.1544 26.4881C39.654 26.0039 39.9814 25.4914 40.1446 24.9158C40.3066 24.3446 40.2955 23.7515 40.1835 23.1241L40.1099 22.712M39.1544 26.4881L40.1099 22.712M40.1099 22.712H39.6912M40.1099 22.712H39.6912M39.6912 22.712H39.6657H39.6402H39.6147H39.5892H39.5637H39.5381H39.5126H39.4871H39.4616H39.4361H39.4105H39.385H39.3595H39.334H39.3085H39.2829H39.2574H39.2319H39.2064H39.1808H39.1553H39.1298H39.1043H39.0788H39.0532H39.0277H39.0022H38.9766H38.9511H38.9256H38.9001H38.8745H38.849H38.8235H38.798H38.7724H38.7469H38.7214H38.6958H38.6703H38.6448H38.6192H38.5937H38.5682H38.5426H38.5171H38.4916H38.466H38.4405H38.415H38.3894H38.3639H38.3384H38.3128H38.2873H38.2618H38.2362H38.2107H38.1851H38.1596H38.1341H38.1085H38.083H38.0575H38.0319H38.0064H37.9808H37.9553H37.9297H37.9042H37.8787H37.8531H37.8276H37.802H37.7765H37.7509H37.7254H37.6998H37.6743H37.6487H37.6232H37.5976H37.5721H37.5465H37.521H37.4954H37.4699H37.4443H37.4188H37.3932H37.3677H37.3421H37.3166H37.291H37.2655H37.2399H37.2144H37.1888H37.1632H37.1377H37.1121H37.0866H37.061H37.0355H37.0099H36.9843H36.9588H36.9332H36.9077H36.8821H36.8565H36.831H36.8054H36.7798H36.7543H36.7287H36.7031H36.6776H36.652H36.6264H36.6009H36.5753H36.5497H36.5242H36.4986H36.473H36.4474H36.4219H36.3963H36.3707H36.3452H36.3196H36.294H36.2684H36.2429H36.2173H36.1917H36.1661H36.1405H36.115H36.0894H36.0638H36.0382H36.0126H35.9871H35.9615H35.9359H35.9103H35.8847H35.8591H35.8336H35.808H35.7824H35.7568H35.7312H35.7056H35.68H35.6544H35.6289H35.6033H35.5777H35.5521H35.5265H35.5009H35.4753H35.4497H35.4241H35.3985H35.3729H35.3473H35.3217H35.2961H35.2705H35.2449H35.2193H35.1937H35.1681H35.1425H35.1169H35.0913H35.0657H35.0401H35.0145H34.9889H34.9633H34.9377H34.9121H34.8865H34.8609H34.8353H34.8096H34.784H34.7584H34.7328H34.7072H34.6816H34.656H34.6303H34.6047H34.5791H34.5535H34.5279H34.5023H34.4766H34.451H34.4254H34.3998H34.3742H34.3485H34.3229H34.2973H34.2717H34.246H34.2204H34.1948H34.1692H34.1435H34.1179H34.0923H34.0666H34.041H34.0154H33.9897H33.9641H33.9385H33.9128H33.8872H33.8616H33.8359H33.8103H33.7847H33.759H33.7334H33.7077H33.6821H33.6564H33.6308H33.6052H33.5795H33.5539H33.5282H33.5026H33.4769H33.4513H33.4256H33.4H33.3743H33.3487H33.323H33.2974H33.2717H33.2461H33.2204H33.1947H33.1691H33.1434H33.1178H33.0921H33.0665H33.0408H33.0151H32.9895H32.9638H32.9381H32.9125H32.8868H32.8611H32.8355H32.8098H32.7841H32.7585H32.7328H32.7071H32.6815H32.6558H32.6301H32.6044H32.5788H32.5531H32.5274H32.5017H32.476H32.4504H32.4247H32.399H32.3733H32.3476H32.3219H32.2963H32.2706H32.2449H32.2192H32.1935H32.1678H32.1421H32.1164H32.0908H32.0651H32.0394H32.0137H31.988H31.9623H31.9366H31.9109H31.8852H31.8595H31.8338H31.8081H31.7824H31.7567H31.731H31.7053H31.6796H31.6539H31.6281H31.6024H31.5767H31.551H31.5253H31.4996H31.4739H31.4482H31.4225H31.3967H31.371H31.3453H31.3196H31.2939H31.2681H31.2424H31.2167H31.191H31.1653H31.1395H31.1138H31.0881H31.0623H31.0366H31.0109H30.9852H30.9594H30.9337H30.908H30.8822H30.8565H30.8307H30.805H30.7793H30.7535H30.7278H30.7021H30.6763H30.6506H30.6248H30.5991H30.5733H30.5476H30.5218H30.4961H30.4703H30.4446H30.4188H30.3931H30.3673H30.3416H30.3158H30.2901H30.2643H30.2385H30.2128H30.187H30.1613H30.1355H30.1097H30.084H30.0582H30.0324H30.0067H29.9809H29.9551H29.9293H29.9036H29.8778H29.852H29.8263H29.8005H29.7747H29.7489H29.7231H29.6974H29.6716H29.6458H29.62H29.5942H29.5684H29.5427H29.5169H29.4911H29.4653H29.4395H29.4137H29.3879H29.3621H29.3363H29.3105H29.2847H29.2589H29.2331H29.2073H29.1815H29.1557H29.1299H29.1041H29.0783H29.0525H29.0267H29.0009H28.9751H28.9493H28.9235H28.8976H28.8718H28.846H28.8202H28.7944H28.7686H28.7427H28.7169H28.6911H28.6653H28.6394H28.6136H28.5878H28.562H28.5361H28.5103H28.4845H28.4586H28.4328H28.407H28.3811H28.3553H28.3295H28.3036H28.2778H28.2519H28.2261H28.2003H28.1744H28.1486H28.1227H28.0969H28.071H28.0452H28.0193H27.9935H27.9676H27.9418H27.9159H27.89H27.8642H27.8383H27.8125H27.7866H27.7607H27.7349H27.709H27.6831H27.6573H27.6314H27.6055H27.5797H27.5538H27.5279H27.502H27.4762H27.4503H27.4244H27.3985H27.3726H27.3468H27.3209H27.295H27.2691H27.2432H27.2173H27.1914H27.1655H27.1396H27.1138H27.0879H27.062H27.0438V22.6667V22.6213V22.5759V22.5305V22.485V22.4396V22.3942V22.3488V22.3034V22.2579V22.2125V22.1671V22.1217V22.0763V22.0309V21.9854V21.94V21.8946V21.8492V21.8038V21.7584V21.713V21.6676V21.6222V21.5768V21.5314V21.486V21.4406V21.3952V21.3498V21.3044V21.259V21.2136V21.1682V21.1228V21.0774V21.032V20.9867V20.9413V20.8959V20.8505V20.8051V20.7597V20.7143V20.669V20.6236V20.5782V20.5328V20.4874V20.4421V20.3967V20.3513V20.3059V20.2606V20.2152V20.1698V20.1245V20.0791V20.0337V19.9884V19.943V19.8976V19.8523V19.8069V19.7615V19.7162V19.6708V19.6255V19.5801V19.5347V19.4894V19.444V19.3987V19.3533V19.308V19.2626V19.2173V19.1719V19.1266V19.0812V19.0359V18.9905V18.9452V18.8998V18.8545V18.8091V18.7638V18.7184V18.6731V18.6278V18.5824V18.5371V18.4917V18.4464V18.4011V18.3557V18.3104V18.265V18.2197V18.1744V18.129V18.0837V18.0384V17.993V17.9477V17.9024V17.8571V17.8117V17.7664V17.7211V17.6757V17.6304V17.5851V17.5398V17.4944V17.4491V17.4038V17.3585V17.3132V17.2678V17.2225V17.1772V17.1319V17.0866V17.0412V16.9959V16.9506V16.9053V16.86V16.8147V16.7693V16.724V16.6787V16.6334V16.5881V16.5428V16.4975V16.4522V16.4069V16.3615V16.3162V16.2709V16.2256V16.1803V16.135V16.0897V16.0444V15.9991V15.9538V15.9085V15.8632V15.8179V15.7726V15.7273V15.682V15.6367V15.5914V15.5461V15.5008V15.4555V15.4102V15.3649V15.3196V15.2743V15.229V15.1837V15.1384V15.0931V15.0478V15.0025V14.9572V14.9119V14.8666V14.8213V14.776V14.7307V14.6854V14.6401V14.5948V14.5495V14.5042V14.459V14.4137V14.3684V14.3231V14.2778V14.2325V14.1872V14.1419V14.0966V14.0513V14.0061V13.9608V13.9155V13.8702V13.8249V13.7796V13.7343V13.689V13.6438V13.5985V13.5532V13.5079V13.4626V13.4173V13.372V13.3267V13.2815V13.2362V13.1909V13.1456V13.1003V13.055V13.0098V12.9645V12.9192V12.8739V12.8286V12.7833V12.7381V12.6928V12.6475V12.6022V12.5569V12.5116V12.4664V12.4211V12.3758V12.3305V12.2852V12.2399V12.1947V12.1494V12.1041V12.0588V12.0135V11.9682V11.923V11.8777V11.8324V11.7871V11.7418V11.6966V11.6513V11.606V11.5607V11.5154V11.4701V11.4249V11.3796V11.3343V11.289V11.2437V11.1985V11.1532V11.1079V11.0626V11.0173V10.972V10.9268V10.8815V10.8362V10.7909V10.7456V10.7003V10.6551V10.6098V10.5645V10.5192V10.4739V10.4286V10.3834V10.3381V10.2928V10.2475V10.2022V10.1569V10.1117V10.0664V10.0211V9.9758V9.93052V9.88523V9.83995V9.79466V9.74938V9.70409V9.6588V9.61352V9.56823V9.52294V9.47766V9.43237V9.38708V9.34179V9.2965V9.25122V9.20593V9.16064V9.11535V9.07006V9.02477V8.97948V8.93419V8.8889V8.84361V8.79832V8.75303V8.70773V8.66244V8.61715V8.57186V8.52656V8.48127V8.43598V8.39068V8.34539V8.30009V8.2548V8.2095V8.16421V8.11891V8.07361V8.02831V7.98302V7.93772V7.89242V7.84712V7.80182V7.75652V7.71122V7.66592V7.62062V7.57532V7.53002V7.48472V7.43941V7.39411V7.34881V7.3035V7.2582V7.21289V7.16759V7.12228V7.07698V7.03167V6.98636V6.94106V6.89575V6.85044V6.80513V6.75982V6.71451V6.6692V6.62389V6.57857V6.53326V6.48795V6.44263V6.39732V6.352V6.30669V6.26137V6.21606V6.17074V6.12542V6.0801V6.03478V5.98946V5.94414V5.89882V5.8535V5.80818V5.76286V5.71753V5.67221V5.62689V5.58156V5.53623V5.49091V5.44558V5.40025V5.35492V5.30959V5.26426V5.21893V5.1736V5.12827V5.08294V5.0376V4.99227V4.94693V4.9016V4.85626V4.81093V4.76559V4.72025V4.67491V4.62957V4.58423V4.53889V4.49354V4.4482V4.40286V4.35751V4.31217V4.26682V4.22147V4.17613V4.13078V4.08543V4.04008V3.99472V3.94937V3.90402V3.85867V3.81331V3.76796V3.7226V3.67724V3.63188V3.58653V3.54117V3.49581V3.45044V3.40508V3.35972V3.31435V3.26899V3.22362V3.17826V3.13289V3.08752V3.04215V2.99678V2.95141V2.90603V2.86066V2.81529V2.76991V2.72453V2.67916V2.63378V2.5884V2.54302V2.49764V2.45226V2.40687V2.36149V2.3161V2.27072V2.22533V2.17994V2.13455V2.08916V2.04377V1.99838V1.95298V1.90759V1.86219V1.8168V1.7714V1.726V1.6806V1.6352V1.5898V1.54439V1.49899V1.45358V1.40818V1.36277V1.31736V1.27195V1.22654V1.18113V1.13572V1.0903V1.04489V0.999469V0.954051V0.908632V0.863212V0.81779V0.772368V0.726944V0.681519V0.636093V0.590666V0.545237V0.5H27.0451H27.0836H27.1222H27.1608H27.1993H27.2379H27.2764H27.315H27.3536H27.3921H27.4307H27.4693H27.5078H27.5464H27.585H27.6235H27.6621H27.7007H27.7393H27.7778H27.8164H27.855H27.8935H27.9321H27.9707H28.0093H28.0478H28.0864H28.125H28.1636H28.2021H28.2407H28.2793H28.3179H28.3564H28.395H28.4336H28.4722H28.5107H28.5493H28.5879H28.6265H28.6651H28.7036H28.7422H28.7808H28.8194H28.858H28.8965H28.9351H28.9737H29.0123H29.0509H29.0895H29.1281H29.1666H29.2052H29.2438H29.2824H29.321H29.3596H29.3982H29.4368H29.4754H29.514H29.5525H29.5911H29.6297H29.6683H29.7069H29.7455H29.7841H29.8227H29.8613H29.8999H29.9385H29.9771H30.0157H30.0543H30.0929H30.1315H30.1701H30.2087H30.2473H30.2859H30.3245H30.3631H30.4017H30.4403H30.4789H30.5175H30.5561H30.5948H30.6334H30.672H30.7106H30.7492H30.7878H30.8264H30.865H30.9036H30.9423H30.9809H31.0195H31.0581H31.0967H31.1353H31.174H31.2126H31.2512H31.2898H31.3284H31.3671H31.4057H31.4443H31.4829H31.5216H31.5602H31.5988H31.6374H31.6761H31.7147H31.7533H31.792H31.8306H31.8692H31.9078H31.9465H31.9851H32.0237H32.0624H32.101H32.1397H32.1783H32.2169H32.2556H32.2942H32.3328H32.3715H32.4101H32.4488H32.4874H32.5261H32.5647H32.6034H32.642H32.6806H32.7193H32.7579H32.7966H32.8352H32.8739H32.9125H32.9512H32.9899H33.0285H33.0672H33.1058H33.1445H33.1831H33.2218H33.2605H33.2991H33.3378H33.3764H33.4151H33.4538H33.4924H33.5311H33.5698H33.6084H33.6471H33.6858H33.7244H33.7631H33.8018H33.8405H33.8791H33.9178H33.9565H33.9952H34.0338H34.0725H34.1112H34.1499H34.1886H34.2272H34.2659H34.3046H34.3433H34.382H34.4207H34.4594H34.498H34.5367H34.5754H34.6141H34.6528H34.6915H34.7302H34.7689H34.8076H34.8463H34.885H34.9237H34.9624H35.0011H35.0398H35.0785H35.1172H35.1559H35.1946H35.2333H35.272H35.3107H35.3494H35.3881H35.4269H35.4656H35.5043H35.543H35.5817H35.6204H35.6592H35.6979H35.7366H35.7753H35.814H35.8528H35.8915H35.9302H35.9689H36.0077H36.0464H36.0851H36.1239H36.1626H36.2013H36.2401H36.2788H36.3175H36.3563H36.395H36.4338H36.4725H36.5112H36.55H36.5887H36.6275H36.6662H36.705H36.7437H36.7825H36.8212H36.86H36.8987H36.9375H36.9762H37.015H37.0538H37.0925H37.1313H37.17H37.2088H37.2476H37.2863H37.3251H37.3639H37.4026H37.4414H37.4802H37.5189H37.5577H37.5965H37.6353H37.674H37.7128H37.7516H37.7904H37.8292H37.8679H37.9067H37.9455H37.9843H38.0231H38.0619H38.1007H38.1395H38.1783H38.2171H38.2558H38.2946H38.3334H38.3722H38.411H38.4498H38.4886H38.5275H38.5663H38.6051H38.6439H38.6827H38.7215H38.7603H38.7991H38.8379H38.8767H38.9156H38.9544H38.9932H39.032H39.0708H39.1097H39.1485H39.1873H39.2262H39.265H39.3038H39.3426H39.3815H39.4203H39.4591H39.498H39.5368H39.5757H39.6145H39.6533H39.6922H39.731H39.7699H39.8087H39.8476H39.8864H39.9253H39.9641H40.003H40.0418H40.0807H40.1196H40.1584H40.1973H40.2362H40.275H40.3139H40.3527H40.3916H40.4305H40.4694H40.5082H40.5471H40.586H40.6249H40.6637H40.7026H40.7415H40.7804H40.8193H40.8582H40.897H40.9359H40.9748H41.0137H41.0526H41.0915H41.1304H41.1693H41.2082H41.2471H41.286H41.3249H41.3638H41.4027H41.4416H41.4805H41.5195H41.5584H41.5973H41.6362H41.6751H41.714H41.753H41.7919H41.8308H41.8697H41.9087H41.9476H41.9865H42.0254H42.0644H42.1033H42.1422H42.1812H42.2201H42.2591H42.298H42.337H42.3759H42.4148H42.4538H42.4927H42.5317H42.5706H42.6096H42.6486H42.6875H42.7265H42.7654H42.8044H42.8434H42.8823H42.9213H42.9603H42.9992H43.0382H43.0772H43.1162H43.1551H43.1941H43.2331H43.2721H43.3111H43.3501H43.389H43.428H43.467H43.506H43.545H43.584H43.623H43.662H43.701H43.74H43.779H43.818H43.857H43.896H43.935H43.9741H44.0131H44.0521H44.0911H44.1301H44.1691H44.2082H44.2472H44.2862H44.3253H44.3643H44.4033H44.4423H44.4814H44.5204H44.5595H44.5985H44.6375H44.6766H44.7156H44.7547H44.7937H44.8328H44.8718H44.9109H44.9499H44.989H45.0281H45.0671H45.1062H45.1453H45.1843H45.2234H45.2625H45.3015H45.3406H45.3797H45.4188H45.4578H45.4969H45.536H45.5751H45.6142H45.6533H45.6924H45.7315H45.7705H45.8096H45.8487H45.8878H45.8963M39.6912 22.712L45.8963 0.5M46.3825 27.2074L45.8825 27.2066V27.2074H46.3825ZM46.3825 27.2074C46.3963 18.3733 46.3963 9.553 46.3963 0.732719V0.5L32.4608 41.8341C33.3645 40.9304 34.2688 40.0267 35.1733 39.1228C38.7934 35.5049 42.4171 31.8834 46.023 28.2442M46.3825 27.2074C46.3825 27.553 46.2581 28.0092 46.023 28.2442M45.8963 0.5V0.501296V0.502747V0.504197V0.505647V0.507098V0.508549V0.51V0.511451V0.512902V0.514353V0.515804V0.517255V0.518706V0.520158V0.521609V0.523061V0.524513V0.525965V0.527417V0.528869V0.530321V0.531773V0.533225V0.534677V0.53613V0.537582V0.539035V0.540488V0.54194V0.543393V0.544846V0.546299V0.547752V0.549205V0.550658V0.552112V0.553565V0.555019V0.556472V0.557926V0.559379V0.560833V0.562287V0.563741V0.565195V0.566649V0.568103V0.569557V0.571011V0.572466V0.57392V0.575375V0.576829V0.578284V0.579738V0.581193V0.582648V0.584103V0.585558V0.587013V0.588468V0.589923V0.591378V0.592833V0.594288V0.595744V0.597199V0.598655V0.60011V0.601566V0.603021V0.604477V0.605933V0.607388V0.608844V0.6103V0.611756V0.613212V0.614668V0.616124V0.61758V0.619037V0.620493V0.621949V0.623405V0.624862V0.626318V0.627775V0.629231V0.630688V0.632144V0.633601V0.635058V0.636514V0.637971V0.639428V0.640885V0.642342V0.643799V0.645256V0.646713V0.64817V0.649627V0.651084V0.652541V0.653998V0.655455V0.656913V0.65837V0.659827V0.661285V0.662742V0.664199V0.665657V0.667114V0.668572V0.670029V0.671487V0.672944V0.674402V0.675859V0.677317V0.678775V0.680232V0.68169V0.683148V0.684606V0.686063V0.687521V0.688979V0.690437V0.691895V0.693353V0.69481V0.696268V0.697726V0.699184V0.700642V0.7021V0.703558V0.705016V0.706474V0.707932V0.70939V0.710848V0.712306V0.713764V0.715222V0.71668V0.718138V0.719596V0.721054V0.722512V0.72397V0.725429V0.726887V0.728345V0.729803V0.731261V0.732719V0.5ZM46.023 28.2442L45.6695 27.8907L45.6679 27.8923L46.023 28.2442Z" stroke="white"/>
</svg>
