<svg width="67" height="60" viewBox="0 0 67 60" fill="none" xmlns="http://www.w3.org/2000/svg">
<path d="M16.2101 48.3348C16.037 48.3348 15.9332 48.3348 15.812 48.3348C15.1716 48.3175 14.7562 48.0406 14.7216 47.3656C14.7043 46.7252 15.1024 46.4309 15.6908 46.3617C17.0755 46.1886 18.0447 45.479 18.5467 44.1636C19.0832 42.727 18.5813 41.1174 17.3351 40.252C16.1235 39.4039 14.4447 39.4558 13.3024 40.3732C12.1254 41.3251 11.7273 42.9867 12.3158 44.3713C12.3677 44.5098 12.4543 44.6309 12.5235 44.7521C12.8177 45.3059 12.8004 45.8598 12.2293 46.1886C11.6062 46.5521 11.0523 46.2752 10.81 45.6694C10.4985 44.8559 10.3081 43.9732 10.0831 43.1251C10.0139 42.8482 10.0658 42.554 10.0658 42.1905C7.67729 42.3636 5.75611 41.5501 4.59649 39.4385C3.45416 37.3616 3.7484 35.3193 5.15034 33.45C4.31956 32.2385 3.40224 31.0788 2.658 29.8327C-3.34784 19.7075 1.25606 6.0516 12.1254 1.58616C16.2966 -0.127324 20.5544 -0.438867 24.916 0.651531C25.2794 0.73807 25.7121 0.963073 25.8852 1.25731C26.041 1.49962 25.989 2.08809 25.7987 2.26117C25.539 2.50348 25.0371 2.64194 24.6563 2.59002C23.6525 2.48617 22.6832 2.20924 21.6794 2.07078C12.6273 0.928457 3.66186 7.74777 2.24261 16.7652C1.39452 22.2518 2.658 27.098 6.1542 31.4077C6.55228 31.8923 6.88113 32.0827 7.57344 31.8577C11.1735 30.6807 14.5658 33.225 14.5658 36.9981C14.5658 37.2231 14.5658 37.4481 14.5658 37.6731C18.512 37.4654 21.0217 40.2001 20.7101 43.7828C25.4006 44.3367 26.6294 45.6002 26.8718 50.0483C27.7025 50.3252 28.5852 50.481 29.3122 50.8791C31.1295 51.8656 31.8564 53.8387 31.3718 55.933C31.3026 56.2272 31.3891 56.6772 31.5795 56.8849C32.8949 58.3388 34.8161 58.4253 36.0969 57.1618C37.3603 55.9157 37.2911 54.0637 35.9238 52.6964C31.0257 47.7983 26.1275 42.9001 21.2467 38.0193C20.3986 37.1712 20.2428 36.6 20.7448 36.1154C21.2294 35.6481 21.8178 35.8212 22.6486 36.652C27.5468 41.5501 32.4449 46.4482 37.3257 51.3464C38.52 52.5406 39.9219 52.9733 41.5142 52.4714C43.0719 51.9868 44.0066 50.8271 44.2489 49.2175C44.4566 47.8329 43.9373 46.6905 42.9681 45.704C38.52 41.2559 34.0718 36.8077 29.641 32.3596C29.4506 32.1692 29.1564 31.9961 29.1218 31.7884C29.0525 31.3731 28.9833 30.8019 29.2083 30.5769C29.4333 30.3519 30.0218 30.4038 30.4199 30.4557C30.6276 30.4904 30.8006 30.7846 30.991 30.9577C35.9238 35.8904 40.8565 40.8405 45.8066 45.7559C48.022 47.954 51.4663 47.2444 52.4875 44.3713C53.0586 42.7443 52.6259 41.3078 51.4144 40.0962C49.4066 38.1058 47.4162 36.0981 45.4258 34.1077C45.2874 33.9692 45.1316 33.8308 44.9931 33.675C44.6124 33.2077 44.5431 32.7231 44.9931 32.2904C45.4431 31.8577 45.9624 31.9096 46.3778 32.325C47.3124 33.225 48.2124 34.1596 49.1297 35.077C50.0124 35.9597 50.8778 36.8424 51.7605 37.7077C53.474 39.3866 55.8625 39.4385 57.4894 37.8289C59.0471 36.2885 59.0818 33.7789 57.4548 32.1519C51.674 26.3191 45.8412 20.521 40.0258 14.7055C39.9911 14.6709 39.9219 14.6536 39.8008 14.5844C39.5931 14.7748 39.3681 14.9825 39.1431 15.2075C36.5123 17.8383 33.8988 20.5037 31.2333 23.0999C28.4641 25.7826 24.189 25.1595 22.2852 21.8537C21.039 19.6902 21.4198 16.9729 23.289 15.0863C25.8679 12.4728 28.4641 9.89395 31.0603 7.31507C31.3026 7.07276 31.5968 6.88238 31.9949 6.57083C30.8526 5.77467 29.9006 5.08235 28.9314 4.42465C28.3775 4.06119 28.0314 3.62849 28.3948 2.9881C28.7756 2.31309 29.3814 2.36501 29.9526 2.76309C31.043 3.50733 32.116 4.26888 33.1718 4.99581C34.5911 4.0785 35.9757 3.00541 37.4988 2.22655C49.1297 -3.65814 62.8549 2.60732 65.9011 15.3113C67.5107 22.0441 65.8665 28.1192 61.2279 33.3115C60.7779 33.8135 60.5356 34.2635 60.5529 34.9731C60.6222 38.227 58.2337 40.7366 54.9625 40.927C54.7721 40.9443 54.5817 40.9616 54.374 40.9963C55.9836 46.3271 50.947 50.4117 46.2393 48.5252C46.1528 50.3944 45.5297 52.0041 44.0758 53.2156C42.6046 54.4445 40.9085 54.7906 38.9527 54.5137C38.9181 56.8503 38.0354 58.7195 35.8026 59.6022C33.5699 60.4849 31.6141 59.8619 29.9526 58.0965C28.4122 59.1695 26.7679 59.4811 25.0544 58.6157C23.3756 57.7676 22.6486 56.2964 22.5794 54.4791C17.7678 53.9945 16.6255 52.8868 16.2101 48.3348ZM59.9472 31.8404C60.0683 31.7192 60.276 31.5115 60.4491 31.2865C63.1318 28.0326 64.5164 24.2595 64.5511 20.0537C64.6722 8.9074 54.7375 0.426528 43.6777 2.20924C39.9565 2.81502 36.7373 4.45927 34.0545 7.10738C30.9564 10.1709 27.8929 13.2517 24.8121 16.3325C23.3236 17.821 23.1679 19.9152 24.3967 21.421C25.8333 23.1691 28.291 23.2903 29.9526 21.646C32.9295 18.7037 35.8719 15.744 38.8315 12.7844C39.6623 11.9536 39.9738 11.9536 40.7873 12.6805C44.37 15.8479 49.147 15.8479 52.799 12.6632C53.4913 12.0747 54.0105 12.0228 54.4432 12.5248C54.9798 13.1651 54.6163 13.6498 54.149 14.0825C52.4701 15.6229 50.5144 16.644 48.2297 16.8517C47.2258 16.9383 46.2047 16.869 45.1835 16.869C45.1316 16.9556 45.0624 17.0594 45.0104 17.146C49.9778 22.0268 54.9452 26.9249 59.9472 31.8404ZM12.6447 36.825C12.6274 35.0077 11.0696 33.4673 9.25231 33.4673C7.38306 33.4673 5.87727 35.025 5.91189 36.9116C5.9465 38.7808 7.43498 40.2174 9.32154 40.1828C11.1735 40.1828 12.662 38.6597 12.6447 36.825ZM21.5409 52.5233C23.3756 52.5233 24.8987 51.0348 24.9333 49.2002C24.9679 47.3309 23.4102 45.7905 21.5409 45.8078C19.689 45.8252 18.2005 47.3309 18.2005 49.1829C18.2005 51.0002 19.7063 52.506 21.5409 52.5233ZM27.1141 57.1791C28.4468 57.1618 29.5718 56.0195 29.5718 54.6695C29.5718 53.3195 28.4295 52.1772 27.0968 52.1772C25.7121 52.1772 24.5871 53.3195 24.6217 54.7214C24.639 56.0887 25.764 57.1964 27.1141 57.1791Z" fill="#4B4B4B"/>
</svg>
