<svg width="60" height="60" viewBox="0 0 60 60" fill="none" xmlns="http://www.w3.org/2000/svg">
<path d="M36.3462 31.0393C37.2378 30.686 37.9781 30.4505 38.6847 30.114C38.8865 30.0131 39.0884 29.6766 39.1052 29.4411C39.1557 28.684 39.1221 27.927 39.1221 27.1699C39.1389 26.2446 39.4249 25.9586 40.3165 25.9418C42.083 25.925 43.8495 25.925 45.6159 25.9418C46.5244 25.9418 46.8104 26.2278 46.8272 27.1531C46.844 28.0784 46.8272 29.0037 46.8272 29.8953C47.6347 30.2318 48.375 30.5851 49.132 30.8543C49.3171 30.9216 49.6536 30.8038 49.8218 30.6524C50.4106 30.1309 50.949 29.5589 51.5041 29.0037C52.0425 28.4653 52.564 28.4653 53.1024 29.0037C54.3641 30.2823 55.6427 31.5272 56.9045 32.8058C57.5438 33.4451 57.5438 33.8152 56.9045 34.4377C56.2315 35.1106 55.525 35.7331 54.8352 36.3724C55.0707 36.8434 55.3062 37.1463 55.3735 37.4995C55.6259 38.8959 56.4334 39.2324 57.7961 39.1314C60 38.9968 60 39.0978 60 41.3353C60 42.7653 60.0168 44.1953 60 45.6253C60 46.5001 59.714 46.7861 58.8392 46.8029C58.6709 46.8029 58.5027 46.8029 58.3345 46.8029C55.9287 46.8029 55.9287 46.8029 55.0875 49.0573C55.0202 49.2592 55.0875 49.6124 55.239 49.7639C55.7605 50.3527 56.3493 50.8742 56.8877 51.4462C57.5438 52.1191 57.5438 52.4724 56.8708 53.1454C55.6259 54.4071 54.381 55.6521 53.1192 56.897C52.4631 57.5363 52.1266 57.5363 51.4705 56.9138C50.9321 56.3923 50.377 55.8708 49.8723 55.2988C49.5526 54.9287 49.2498 54.895 48.8629 55.1642C48.7283 55.2651 48.5769 55.3661 48.4086 55.3829C46.8945 55.5848 46.7263 56.5605 46.7767 57.8728C46.8777 59.9925 46.8104 59.9925 44.657 59.9925C43.1933 59.9925 41.7465 60.0094 40.2829 59.9925C39.4081 59.9925 39.1389 59.7065 39.1052 58.8317C39.1052 58.714 39.0884 58.5962 39.1052 58.4952C39.4417 56.712 38.937 55.5175 37.0023 55.1137C36.6154 55.0296 36.363 54.9287 36.0602 55.2651C35.5555 55.8203 35.0003 56.3418 34.462 56.8802C33.8058 57.5195 33.4526 57.5363 32.8133 56.9138C31.5179 55.6353 30.2393 54.3398 28.9439 53.0444C28.4392 52.5229 28.4392 52.0182 28.9439 51.4967C29.4822 50.9583 30.0037 50.4032 30.5589 49.8984C30.8954 49.5956 31.0468 49.3096 30.7608 48.9059C30.643 48.7545 30.5421 48.5526 30.5253 48.3675C30.3234 46.8198 29.314 46.7188 28.0186 46.7693C25.9325 46.8702 25.9156 46.8029 25.9156 44.7C25.9156 43.27 25.9156 41.84 25.9156 40.41C25.9156 39.3501 26.1848 39.0978 27.2783 39.081C27.3625 39.081 27.4466 39.081 27.5307 39.081C28.3214 39.0641 29.2803 39.3165 29.8355 38.9464C30.3739 38.5931 30.5421 37.6005 30.7944 36.8771C30.8786 36.6584 30.8113 36.2883 30.6767 36.12C30.1383 35.5144 29.5495 34.9592 28.9775 34.3704C28.4728 33.8489 28.4728 33.3441 28.9775 32.8226C30.2729 31.5104 31.5851 30.1982 32.8974 28.9027C33.3684 28.4317 33.9068 28.4317 34.3778 28.9196C35.0676 29.6598 35.7405 30.3832 36.3462 31.0393ZM40.9054 58.1924C42.3353 58.1924 43.6476 58.1924 45.0271 58.1924C45.0271 57.2671 45.0271 56.4091 45.0271 55.5343C45.0271 54.9287 45.3131 54.5922 45.9187 54.3735C46.945 54.0202 47.9544 53.5828 48.9301 53.1117C49.519 52.8257 49.99 52.8257 50.4274 53.3304C50.9994 53.9697 51.6051 54.609 52.1434 55.1642C53.2033 54.1211 54.1623 53.1622 55.2053 52.136C54.5997 51.564 54.0108 50.9752 53.3884 50.42C52.85 49.9489 52.8668 49.4779 53.1697 48.8554C53.6239 47.9301 54.0613 46.988 54.3641 45.9954C54.5828 45.272 54.9698 44.9692 55.6932 44.986C56.5175 45.0028 57.3587 44.986 58.2167 44.986C58.2167 43.5728 58.2167 42.2774 58.2167 40.8811C57.3587 40.8811 56.5512 40.8642 55.7437 40.8811C54.9866 40.9147 54.5828 40.6287 54.3641 39.8717C54.0781 38.9127 53.6575 37.9874 53.2033 37.0958C52.8668 36.4565 52.85 35.935 53.422 35.4639C54.0781 34.9087 54.7342 34.3536 55.239 33.9161C54.095 32.7385 53.1697 31.7796 52.1939 30.7702C51.6387 31.3422 51.0499 31.9478 50.4779 32.5534C50.0405 33.0245 49.5863 33.1086 48.9806 32.8058C48.0217 32.3347 47.0459 31.9142 46.0533 31.5777C45.3131 31.3253 45.0271 30.9047 45.0439 30.1645C45.0776 29.357 45.0439 28.5663 45.0439 27.7419C43.6139 27.7419 42.3185 27.7419 40.939 27.7419C40.939 28.6167 40.9054 29.4243 40.939 30.2318C40.9726 30.9552 40.6698 31.359 39.9801 31.5945C38.9875 31.9478 37.9949 32.3516 37.036 32.8058C36.4303 33.0918 35.9761 33.0581 35.5387 32.5703C34.9667 31.931 34.3778 31.2749 33.8731 30.7197C32.7796 31.8132 31.8207 32.7385 30.7776 33.7816C31.3496 34.3199 31.9553 34.9087 32.5777 35.4639C33.0993 35.935 33.1329 36.406 32.8301 37.0285C32.3759 37.9538 31.9721 38.9127 31.6524 39.8885C31.4001 40.6287 30.9963 40.9315 30.2393 40.8979C29.4317 40.8642 28.641 40.8811 27.783 40.8811C27.783 42.2942 27.783 43.6065 27.783 44.986C28.641 44.986 29.4486 45.0196 30.2561 44.986C31.03 44.9523 31.4169 45.3056 31.6524 46.029C31.9889 47.0048 32.3758 47.9637 32.8469 48.889C33.1666 49.5283 33.0993 49.9994 32.5946 50.4536C31.9721 51.0088 31.3664 51.5976 30.7944 52.136C31.8207 53.179 32.7628 54.1211 33.8563 55.2315C34.3778 54.6427 34.933 54.037 35.4882 53.3977C35.9592 52.8426 36.4471 52.7921 37.1201 53.1286C38.0285 53.5996 38.9875 54.0202 39.9801 54.323C40.7035 54.5585 40.9726 54.9287 40.9558 55.6521C40.8885 56.4932 40.9054 57.3008 40.9054 58.1924Z" fill="#4B4B4B"/>
<path d="M28.9775 10.4306C29.3308 11.3054 29.5663 12.0288 29.9028 12.7017C30.0206 12.9204 30.357 13.156 30.6262 13.1728C31.4001 13.2401 32.1908 13.2064 32.9815 13.1896C33.7049 13.1896 34.075 13.5261 34.075 14.2663C34.075 16.1169 34.075 17.9675 34.075 19.8181C34.075 20.5583 33.6881 20.8948 32.9815 20.8948C32.174 20.9116 31.3496 20.8611 30.5421 20.9284C30.3066 20.9452 30.0542 21.1808 29.886 21.3826C29.7514 21.5509 29.785 21.8369 29.6673 22.0051C28.7252 23.2332 29.3476 24.0239 30.2897 24.8987C31.8543 26.3287 31.8039 26.3792 30.3234 27.8429C29.2972 28.8691 28.2709 29.9121 27.2279 30.9384C26.5886 31.5777 26.1512 31.5777 25.5119 30.9552C25.024 30.4841 24.5529 30.0131 24.0819 29.5252C23.9641 29.4074 23.8127 29.1719 23.7286 29.1887C22.9042 29.4074 22.0799 29.6261 21.2724 29.929C21.0873 29.9963 20.9022 30.3327 20.9022 30.5514C20.8518 31.359 20.8854 32.1833 20.8854 32.9908C20.8686 33.6974 20.5489 34.0844 19.7919 34.0675C17.9413 34.0507 16.0907 34.0675 14.2401 34.0675C13.4999 34.0675 13.1803 33.6806 13.1803 32.974C13.1803 32.217 13.1634 31.4599 13.1971 30.7028C13.2139 30.2486 13.0961 29.9963 12.6251 29.8448C11.9353 29.6261 11.2792 29.3233 10.3707 28.9532C9.81557 29.5588 9.22674 30.2654 8.58745 30.9216C7.94816 31.5777 7.51075 31.5777 6.87146 30.972C5.59287 29.7103 4.33111 28.4317 3.05253 27.1699C2.51418 26.6316 2.49735 26.1269 3.05253 25.5885C3.62453 25.0502 4.19652 24.5118 4.70123 23.9062C4.86946 23.7211 4.88629 23.3342 4.86946 23.065C4.85264 22.8295 4.65076 22.6108 4.56664 22.3752C3.94417 20.8948 3.96099 20.8948 2.32912 20.8948C0.00747704 20.8948 0.0074771 20.8948 0.0074771 18.6068C0.0074771 17.2104 -0.00934638 15.7972 0.0074771 14.4009C0.0074771 13.4756 0.293476 13.2064 1.21877 13.1896C1.75712 13.1728 2.29547 13.1223 2.817 13.2064C3.79276 13.3747 4.07876 12.8363 4.48252 12.0624C5.15546 10.8175 4.80217 10.1109 3.86005 9.25291C2.21135 7.75562 2.26182 7.70515 3.82641 6.14057C4.81899 5.14798 5.81158 4.1554 6.80416 3.16281C7.5444 2.4394 7.86404 2.4394 8.6211 3.17964C9.10898 3.65069 9.58004 4.12175 10.0511 4.60963C10.152 4.71057 10.2866 4.91246 10.3371 4.89563C11.1614 4.6601 12.0026 4.42457 12.7933 4.10493C12.9784 4.03763 13.1298 3.65069 13.1466 3.39834C13.1971 2.64129 13.1634 1.88423 13.1634 1.12717C13.1634 0.353293 13.5336 0 14.2906 0C16.1075 0 17.9413 0 19.7582 0C20.5489 0 20.8686 0.420587 20.8686 1.16082C20.8686 1.95152 20.8181 2.74223 20.9022 3.51611C20.9359 3.76846 21.2724 4.18905 21.4911 4.20587C22.3154 4.27316 22.9211 5.5181 23.88 4.7274C24.4856 4.22269 25.0072 3.63387 25.5455 3.0787C26.0839 2.52352 26.6054 2.54034 27.1437 3.0787C28.4055 4.35728 29.6841 5.61904 30.9459 6.89763C31.5515 7.50327 31.5515 7.9575 30.9627 8.54633C30.3234 9.18562 29.6336 9.80809 28.9775 10.4306ZM7.88086 29.2897C8.41922 28.7009 8.99121 28.0952 9.54639 27.4727C10.0006 26.9512 10.4717 26.8839 11.111 27.2036C12.0531 27.6746 13.0457 28.0784 14.0383 28.4317C14.728 28.6672 15.0308 29.071 15.014 29.7944C14.9804 30.6019 15.014 31.4094 15.014 32.2506C16.4272 32.2506 17.7394 32.2506 19.1189 32.2506C19.1189 31.3926 19.1526 30.6019 19.1021 29.828C19.0685 29.071 19.3713 28.6672 20.1115 28.4149C21.0873 28.0952 22.0462 27.6914 22.9715 27.2204C23.594 26.9007 24.0819 26.9344 24.5361 27.4559C25.0913 28.112 25.6633 28.7513 26.2353 29.3738C27.3625 28.2466 28.2877 27.3213 29.3981 26.211C28.7588 25.639 28.1027 25.067 27.4634 24.495C26.9755 24.0576 26.9082 23.6033 27.211 22.9977C27.6821 22.0219 28.1027 21.0125 28.456 19.9863C28.6747 19.3638 29.028 19.061 29.6841 19.0946C30.5421 19.1115 31.4001 19.0946 32.2749 19.0946C32.2749 17.6646 32.2749 16.3524 32.2749 14.9897C31.3833 14.9897 30.5421 14.9729 29.7009 14.9897C29.0448 15.0065 28.6915 14.7037 28.4728 14.0812C28.1027 13.055 27.6989 12.0456 27.2279 11.0698C26.9419 10.4642 26.9755 10.01 27.4634 9.57256C28.1027 9.00056 28.742 8.41174 29.3476 7.85656C28.2709 6.77986 27.3288 5.83775 26.2857 4.81151C25.7138 5.41716 25.1081 6.03963 24.5193 6.67892C24.0651 7.1668 23.594 7.1668 23.022 6.8808C22.0631 6.42657 21.0873 5.98916 20.0947 5.65269C19.4218 5.43398 19.1358 5.08069 19.1526 4.3741C19.1694 3.51611 19.1526 2.65811 19.1526 1.81694C17.7058 1.81694 16.4104 1.81694 15.0477 1.81694C15.0477 2.7254 15.0477 3.54975 15.0477 4.39093C15.0477 5.03022 14.7953 5.40034 14.156 5.61904C13.1298 5.97233 12.1204 6.40974 11.1446 6.8808C10.5558 7.1668 10.0847 7.14998 9.64733 6.64527C9.07533 5.98916 8.46969 5.36669 7.91451 4.76104C6.85463 5.82092 5.89569 6.77986 4.83582 7.83974C5.45828 8.41174 6.08075 9.00056 6.72005 9.57256C7.22475 10.0268 7.22475 10.481 6.93875 11.0698C6.48452 12.0288 6.03028 13.0045 5.71064 13.9971C5.47511 14.7205 5.07134 14.9897 4.36476 14.9729C3.54041 14.9561 2.71606 14.9729 1.87488 14.9729C1.87488 16.4029 1.87488 17.6983 1.87488 19.0778C2.80017 19.0778 3.65817 19.0946 4.53299 19.0778C5.15546 19.061 5.47511 19.347 5.67699 19.9526C6.03028 20.9789 6.46769 21.9883 6.93875 22.964C7.22475 23.5529 7.20793 24.0239 6.72005 24.4613C6.08075 25.0333 5.44146 25.6222 4.83582 26.1605C5.86205 27.2709 6.82099 28.2298 7.88086 29.2897Z" fill="#4B4B4B"/>
<path d="M11.1278 42.597C14.0382 46.8702 17.8908 49.8311 22.736 51.5135C23.022 51.6144 23.3248 51.6985 23.6108 51.8163C24.1323 52.0182 24.4183 52.4724 24.1323 52.9435C23.9473 53.2295 23.3585 53.5323 23.0893 53.4482C21.6425 52.9603 20.1788 52.4388 18.8161 51.749C15.1991 49.9321 12.2381 47.3244 9.96697 43.9597C9.59685 43.4046 9.15944 43.5055 8.67156 43.5223C6.73686 43.5728 5.23957 42.4624 4.71804 40.6119C4.26381 39.0136 5.05451 37.1294 6.53498 36.2882C8.15003 35.3798 10.0679 35.6658 11.3128 36.978C12.7428 38.5089 12.6924 40.5109 11.1278 42.597ZM6.43404 39.6193C6.41722 40.7969 7.29204 41.739 8.43603 41.7727C9.59685 41.8063 10.5894 40.8306 10.5894 39.6698C10.5894 38.5258 9.68097 37.5836 8.52015 37.5668C7.35933 37.55 6.45086 38.4416 6.43404 39.6193Z" fill="#4B4B4B"/>
<path d="M48.9133 17.4459C46.0029 13.156 42.1503 10.195 37.3051 8.51268C37.0191 8.41174 36.7163 8.32762 36.4303 8.22668C35.9088 8.0248 35.6564 7.65468 35.8415 7.09951C36.0265 6.54433 36.4808 6.3761 36.9855 6.57798C38.3987 7.11633 39.8286 7.60421 41.1745 8.27715C44.7916 10.0941 47.7693 12.7017 50.0405 16.0496C50.4106 16.5879 50.8144 16.5543 51.3191 16.5207C52.9341 16.4365 54.1623 17.1263 54.9193 18.5226C55.71 19.9695 55.5922 21.3995 54.5997 22.7117C53.6071 24.0239 52.2612 24.4782 50.663 24.1585C47.8703 23.5865 46.7263 20.2386 48.5096 17.917C48.6441 17.7824 48.7451 17.6478 48.9133 17.4459ZM53.5903 20.3059C53.5734 19.1451 52.6313 18.2198 51.5041 18.2366C50.377 18.2535 49.4349 19.2124 49.4349 20.3396C49.4349 21.5172 50.3938 22.4593 51.5883 22.4257C52.7491 22.4089 53.6071 21.5004 53.5903 20.3059Z" fill="#4B4B4B"/>
<path d="M43.0251 50.605C38.7856 50.6218 35.3536 47.2403 35.3368 43.0176C35.32 38.7613 38.7351 35.3293 43.0251 35.3293C47.1973 35.3293 50.5957 38.7444 50.6125 42.9335C50.6293 47.1898 47.2646 50.5882 43.0251 50.605ZM48.8629 43.0344C48.8965 39.8043 46.2889 37.1294 43.0588 37.0957C39.8455 37.0453 37.1537 39.6866 37.1201 42.9167C37.0696 46.0963 39.7109 48.8217 42.8569 48.8554C46.1374 48.889 48.8292 46.2814 48.8629 43.0344Z" fill="#4B4B4B"/>
<path d="M16.9992 24.68C12.7597 24.6464 9.39498 21.248 9.41181 17.0085C9.44545 12.7354 12.8101 9.42114 17.0833 9.42114C21.306 9.42114 24.7212 12.87 24.6875 17.0926C24.6539 21.3153 21.2219 24.7137 16.9992 24.68ZM11.1614 17.0422C11.1614 20.2386 13.7859 22.8967 16.9655 22.9304C20.2461 22.964 22.9379 20.2723 22.9042 17.0085C22.8874 13.8121 20.2461 11.1876 17.0497 11.1708C13.8196 11.154 11.1614 13.8121 11.1614 17.0422Z" fill="#4B4B4B"/>
</svg>
