<svg width="60" height="60" viewBox="0 0 60 60" fill="none" xmlns="http://www.w3.org/2000/svg">
<path d="M15.0004 40.8125C15.3285 40.0625 15.6567 39.3906 15.891 38.6719C16.0004 38.3594 15.9692 37.9219 15.8598 37.6094C15.4067 36.3906 14.891 35.2031 14.3598 34.0156C14.2348 33.7187 13.9691 33.4375 13.6879 33.2812C13.1879 33.0156 12.641 32.8281 12.0941 32.6406C11.5004 32.4531 11.266 32.0469 11.266 31.4687C11.266 30.4843 11.266 29.4843 11.266 28.5C11.266 27.9218 11.4848 27.4687 12.0785 27.3281C13.5942 26.9843 14.6098 26.2031 14.8285 24.5468C14.891 24.0781 15.1254 23.5781 15.4223 23.2031C16.1723 22.25 16.0317 21.3593 15.5004 20.3593C14.7973 19 14.8442 18.9531 15.9379 17.875C16.4848 17.3281 17.0317 16.7656 17.5942 16.2187C17.9848 15.8281 18.4535 15.6718 18.9223 15.9843C20.3285 16.9218 21.641 16.8593 23.0473 15.9218C23.6567 15.5156 24.4692 15.4218 25.1567 15.125C25.4535 15 25.7192 14.7343 25.891 14.4687C26.0942 14.1406 26.1879 13.75 26.3285 13.3906C26.8598 12 26.8598 12 28.3598 12C29.1098 12 29.8754 12.0156 30.6254 12C31.2192 11.9843 31.7035 12.2343 31.7973 12.8125C32.1098 14.5781 33.2192 15.4062 34.891 15.7343C35.3598 15.8281 35.8442 16.0625 36.2348 16.3593C36.9848 16.9375 37.6879 16.875 38.4536 16.4218C38.7348 16.25 39.0786 16.1718 39.3754 16C39.9536 15.6718 40.4067 15.8125 40.8442 16.2656C41.5317 16.9687 42.2192 17.6875 42.9379 18.3593C43.3598 18.7656 43.4692 19.25 43.1723 19.7031C42.2504 21.0781 42.2348 22.375 43.2036 23.7656C43.6254 24.3593 43.6879 25.1875 44.0004 25.875C44.1567 26.2031 44.4536 26.5312 44.7817 26.7187C45.2817 27 45.8286 27.1562 46.3754 27.3437C46.8754 27.5312 47.1254 27.875 47.1098 28.4062C47.1098 29.4531 47.1098 30.4844 47.1098 31.5312C47.1098 32.0625 46.8911 32.4687 46.3598 32.5937C44.7348 32.9375 43.7192 33.8437 43.4692 35.5469C43.4223 35.9219 43.2348 36.3125 43.0004 36.6094C42.1411 37.6875 42.3442 38.7031 42.9536 39.8125C43.5473 40.9219 43.4848 41.0312 42.5942 41.9062C42.0004 42.5 41.4067 43.0781 40.8286 43.6719C40.3911 44.1094 39.9223 44.2969 39.3754 43.9375C38.0317 43.0469 36.7504 43.0625 35.3911 43.9844C34.7504 44.4219 33.8754 44.5156 33.141 44.8281C32.891 44.9375 32.6254 45.1562 32.5004 45.3906C32.2192 45.9531 32.0317 46.5469 31.8129 47.125C31.6098 47.6875 31.2192 47.9375 30.6254 47.9375C29.6567 47.9219 28.7035 47.9219 27.7348 47.9375C27.141 47.9531 26.641 47.7031 26.5473 47.1406C26.2504 45.3594 25.1098 44.5469 23.4535 44.2187C22.9848 44.125 22.5004 43.8906 22.1098 43.6094C21.3285 43 20.6254 43.1562 19.8285 43.5625C18.1879 44.3906 18.1723 44.3594 16.8598 43.0312C16.3754 42.5469 15.891 42.0937 15.4379 41.5937C15.2817 41.3906 15.1567 41.0937 15.0004 40.8125ZM45.2192 30.0469C45.5004 29.1718 45.0786 28.75 44.2661 28.5468C43.9692 28.4843 43.6879 28.3281 43.3911 28.2343C42.7973 28.0312 42.5161 27.625 42.3286 27.0156C42.0004 25.9062 41.7192 24.7031 41.0942 23.75C40.2348 22.4687 40.1723 21.3437 40.9848 20.1093C41.3442 19.5625 41.1879 19.2031 40.7348 18.7812C39.8129 17.9375 39.8442 17.9062 38.6567 18.4218C38.4692 18.5 38.2661 18.5625 38.0786 18.6718C37.4692 19.0312 36.9536 18.9062 36.3286 18.5781C35.2036 17.9843 34.0629 17.375 32.8442 17.0625C31.6723 16.7656 30.9223 16.2343 30.7035 15.0625C30.5317 14.1406 30.0317 13.8437 29.0785 13.875C28.3442 13.9062 27.9848 14.0937 27.8285 14.7812C27.766 15.0781 27.5785 15.3593 27.5004 15.6562C27.3285 16.375 26.8442 16.6406 26.1723 16.8906C24.7348 17.3906 23.3598 18.0781 21.9379 18.625C21.5317 18.7812 21.016 18.7812 20.5629 18.7343C20.2192 18.6875 19.8598 18.5 19.5629 18.3125C18.9067 17.875 18.4692 18.0156 17.891 18.5625C17.2504 19.1718 17.0785 19.6718 17.5629 20.4062C17.7035 20.625 17.7817 20.875 17.891 21.1093C18.2035 21.7187 18.141 22.25 17.7973 22.875C17.2192 23.9218 16.5473 24.9843 16.3442 26.125C16.0785 27.625 15.266 28.3281 13.9223 28.6406C13.3129 28.7812 13.1098 29.1093 13.141 29.75C13.1879 31.0625 13.1566 31.0625 14.4067 31.5312C14.6567 31.625 14.891 31.7187 15.141 31.7969C15.6879 31.9844 15.9067 32.3906 16.0942 32.9219C16.4692 34.1094 16.7973 35.3437 17.4223 36.3906C18.1098 37.5312 18.2973 38.5156 17.5473 39.6094C17.0942 40.2812 17.2348 40.75 17.8285 41.3281C18.4223 41.9219 18.9067 42.1094 19.6254 41.625C19.9379 41.4062 20.3129 41.2344 20.6879 41.1562C21.0473 41.0937 21.5004 41.0625 21.7817 41.2344C23.2348 42.125 24.7973 42.75 26.4379 43.1875C26.8129 43.2812 27.141 43.7187 27.391 44.0625C27.5942 44.3437 27.7192 44.7187 27.7973 45.0625C27.9535 45.8125 28.3442 46.0469 29.141 46.0625C30.0317 46.0781 30.5004 45.8281 30.6723 44.9687C30.7192 44.75 30.8598 44.5312 30.9223 44.3125C31.1098 43.5312 31.6723 43.2656 32.391 43.0156C33.8129 42.5312 35.1411 41.8281 36.5473 41.2812C36.9379 41.125 37.4223 41.125 37.8442 41.1875C38.1879 41.2344 38.5317 41.4219 38.8442 41.6094C39.5161 42.0156 39.9848 41.9531 40.5786 41.3437C41.1723 40.7344 41.3129 40.25 40.8911 39.5469C40.7348 39.2812 40.6411 38.9687 40.5004 38.7031C40.1723 38.125 40.3442 37.6406 40.6254 37.0937C41.1879 35.9844 41.8598 34.875 42.1254 33.6875C42.4223 32.3594 43.0786 31.6406 44.3442 31.3594C45.0473 31.25 45.5004 30.875 45.2192 30.0469Z" fill="#4B4B4B"/>
<path d="M32.2504 6.10935C33.1723 6.84373 33.9379 7.4531 34.7192 8.04686C35.2192 8.43748 35.5473 8.87498 35.1254 9.49998C34.7817 10.0156 34.2036 10.0312 33.5629 9.53123C31.9848 8.29686 30.4067 7.0781 28.8285 5.8281C28.0785 5.23435 28.0785 4.6406 28.8442 4.04685C30.4067 2.81247 32.0004 1.59372 33.5786 0.359347C34.0942 -0.0469037 34.5942 -0.187529 35.0942 0.359347C35.4848 0.796847 35.3598 1.34372 34.7661 1.8281C33.8598 2.56247 32.9379 3.29685 32.0317 4.0156C32.0161 4.03123 32.0317 4.06248 32.0317 4.03123C33.7973 4.4531 35.5942 4.74998 37.2973 5.3281C45.3129 8.04685 50.9223 13.3906 53.688 21.375C57.6567 32.7813 53.688 44.5938 43.8129 51.4688C39.7192 54.3282 35.1254 55.875 30.1411 55.9219C20.516 56.0157 10.8754 55.9532 1.25039 55.9688C0.437892 55.9688 -0.0152339 55.6094 0.000391133 55.0157C0.0160162 54.4219 0.453517 54.0938 1.28164 54.0938C10.5004 54.0938 19.7192 54.0782 28.9223 54.0938C34.3286 54.1094 39.2817 52.625 43.5629 49.3125C50.7504 43.7656 54.0317 36.375 53.1255 27.3125C52.0786 16.8906 43.8754 8.15623 33.6567 6.31248C33.2504 6.24998 32.8442 6.2031 32.2504 6.10935Z" fill="#4B4B4B"/>
<path d="M3.26601 29.9844C3.28163 18.3906 10.8598 8.28124 21.9692 5.03124C22.1254 4.98436 22.266 4.95311 22.4223 4.92186C23.0004 4.78124 23.5004 4.90624 23.6723 5.53124C23.8598 6.17186 23.516 6.54686 22.9067 6.74999C21.6098 7.20311 20.266 7.57811 19.0316 8.18749C11.016 12.1562 6.28164 18.5781 5.31289 27.5C4.40663 35.7813 7.31289 42.7032 13.4848 48.2813C13.6566 48.4375 13.9379 48.5782 13.9691 48.7657C14.0473 49.125 14.1254 49.6407 13.9223 49.875C13.7191 50.1094 13.2191 50.1094 12.8285 50.1407C12.6879 50.1563 12.5316 49.9532 12.391 49.8438C7.18789 45.2969 4.12538 39.6407 3.39101 32.75C3.34413 32.2813 3.28163 31.8125 3.26601 31.3594C3.25038 30.875 3.26601 30.4219 3.26601 29.9844Z" fill="#4B4B4B"/>
<path d="M56.0161 55.9688C54.938 55.9688 53.8442 55.9688 52.7661 55.9688C50.6098 55.9688 48.4379 55.9688 46.2817 55.9688C45.4848 55.9688 45.1098 55.6406 45.1254 55.0156C45.1567 54.25 45.6567 54.0781 46.2973 54.0781C49.2348 54.0781 52.1879 54.0781 55.1254 54.0781C55.4067 54.0781 55.6879 54.0781 56.1254 54.0781C55.9379 53.8594 55.8442 53.7188 55.7192 53.625C54.9536 53.0156 54.1567 52.4063 53.3911 51.7813C52.9223 51.4063 52.7817 50.9219 53.1879 50.4219C53.5629 49.9688 54.0473 49.9375 54.5004 50.2969C56.2036 51.6094 57.9223 52.9375 59.6098 54.2813C60.1411 54.7031 60.1411 55.3281 59.6098 55.7656C57.9067 57.1406 56.1723 58.4688 54.4379 59.7969C54.0004 60.125 53.5317 60.0469 53.1879 59.625C52.8129 59.1563 52.9067 58.6719 53.3442 58.3125C54.2504 57.5781 55.1723 56.8594 56.0942 56.1406C56.0473 56.0938 56.0317 56.0313 56.0161 55.9688Z" fill="#4B4B4B"/>
<path d="M29.2192 20.7656C34.3442 20.7656 38.4536 24.875 38.4692 29.9844C38.4692 35.125 34.3442 39.25 29.1723 39.2344C24.0629 39.2188 19.9535 35.0938 19.9692 29.9688C19.9692 24.875 24.0942 20.7656 29.2192 20.7656ZM29.1723 22.6406C25.1254 22.6563 21.8285 25.9375 21.8285 29.9844C21.8285 34.0625 25.141 37.3594 29.2348 37.3438C33.2973 37.3281 36.5629 34.0625 36.5629 30C36.5786 25.9063 33.2973 22.6406 29.1723 22.6406Z" fill="#4B4B4B"/>
</svg>
