<svg width="61" height="60" viewBox="0 0 61 60" fill="none" xmlns="http://www.w3.org/2000/svg">
<path d="M31.0473 55.8618C31.0473 56.8704 31.0473 57.8144 31.0473 58.7584C31.0473 59.5213 30.6594 59.9868 30.0387 59.9997C29.3921 60.0127 28.9913 59.5342 28.9783 58.7325C28.9783 57.7885 28.9783 56.8446 28.9783 55.8618C22.2542 55.461 16.4741 53.0041 11.7284 48.2584C7.00859 43.5386 4.5517 37.7714 4.15084 31.0473C3.18102 31.0473 2.23706 31.0473 1.2931 31.0473C0.478446 31.0473 0 30.6594 0 30.0128C0 29.3663 0.465515 28.9783 1.28017 28.9783C2.2112 28.9783 3.1293 28.9783 4.13791 28.9783C4.52584 22.293 6.98273 16.4999 11.7155 11.7672C16.4611 7.02152 22.2413 4.5517 28.9783 4.15084C28.9783 3.16809 28.9783 2.22413 28.9783 1.28017C28.9783 0.465515 29.3792 0 30.0257 0C30.6723 0.012931 31.0473 0.478446 31.0473 1.2931C31.0473 2.2112 31.0473 3.14223 31.0473 4.13791C37.7455 4.52584 43.5257 6.98273 48.2584 11.7155C53.0041 16.4482 55.461 22.2413 55.8618 28.9525C56.8575 28.9525 57.8015 28.9525 58.7454 28.9525C59.5472 28.9525 60.0256 29.3663 60.0127 30.0128C59.9997 30.6335 59.5342 31.0214 58.7713 31.0214C57.8273 31.0343 56.8834 31.0214 55.8748 31.0214C55.4739 37.7326 53.017 43.5127 48.2843 48.2455C43.5515 53.0041 37.7843 55.461 31.0473 55.8618ZM28.9783 16.668C21.6982 17.0948 16.7456 23.5473 16.7198 28.9783C17.9611 28.9783 19.2154 28.9783 20.4568 28.9783C21.2715 28.9783 21.737 29.3792 21.737 30.0257C21.724 30.6723 21.2585 31.0473 20.4439 31.0473C19.2025 31.0473 17.9482 31.0473 16.7068 31.0473C16.8879 37.2154 22.4352 43.0731 28.9913 43.3317C28.9913 43.099 28.9913 42.8662 28.9913 42.6334C28.9913 41.5343 28.9783 40.4352 29.0042 39.336C29.0171 38.7154 29.4438 38.3016 30.0128 38.2886C30.5559 38.2757 30.9956 38.6636 31.0602 39.2326C31.0861 39.4395 31.0731 39.6593 31.0731 39.8791C31.0731 41.0429 31.0731 42.1938 31.0731 43.3576C38.3274 42.9309 43.2929 36.4912 43.3317 31.0473C42.0903 31.0473 40.836 31.0473 39.5947 31.0473C38.78 31.0473 38.3145 30.6464 38.3274 29.9999C38.3404 29.3533 38.8059 28.9783 39.6205 28.9783C40.8619 28.9783 42.1162 28.9783 43.3576 28.9783C43.1636 22.6939 37.5128 16.9267 31.0731 16.6939C31.0731 17.793 31.0731 18.8792 31.0731 19.9784C31.0731 20.2111 31.0861 20.4568 31.0731 20.6896C31.0343 21.3103 30.6206 21.724 30.0645 21.737C29.4826 21.7499 29.03 21.3103 29.0171 20.6637C28.9654 19.3447 28.9783 18.0387 28.9783 16.668ZM45.5817 31.0861C44.2886 39.4653 39.4912 44.2886 31.1119 45.5817C31.1119 48.2843 31.1119 51.0256 31.1119 53.767C44.0171 53.1722 53.4179 42.5171 53.7411 31.099C50.9998 31.0861 48.2713 31.0861 45.5817 31.0861ZM31.0731 14.4439C39.4912 15.7499 44.3015 20.5732 45.5688 28.9395C48.2843 28.9395 50.9998 28.9395 53.7282 28.9395C53.2498 16.0215 42.3102 6.47842 31.0731 6.32325C31.0731 9.02582 31.0731 11.7413 31.0731 14.4439ZM28.9395 6.28446C16.306 6.72411 6.51721 17.418 6.31032 28.9395C9.03875 28.9395 11.7543 28.9395 14.431 28.9395C15.737 20.5344 20.5473 15.7241 28.9266 14.4439C28.9395 11.7413 28.9395 9.01289 28.9395 6.28446ZM28.9525 45.5688C20.5344 44.2627 15.7241 39.4524 14.4568 31.0861C11.7413 31.0861 9.01289 31.0861 6.28446 31.0861C6.82756 44.3274 18.0516 53.573 28.9525 53.6894C28.9525 50.9869 28.9525 48.2843 28.9525 45.5688Z" fill="#4B4B4B"/>
</svg>
