<svg width="77" height="60" viewBox="0 0 77 60" fill="none" xmlns="http://www.w3.org/2000/svg">
<path d="M38.2734 0.000224542C46.7351 0.0453938 53.4954 6.881 53.4502 15.3427C53.4051 23.699 46.5544 30.4894 38.1981 30.4744C29.7364 30.4443 22.961 23.5635 23.0212 15.0566C23.0965 6.73044 29.9622 -0.0449447 38.2734 0.000224542ZM24.813 15.1921C24.7979 22.63 30.8054 28.6676 38.2282 28.6676C45.6209 28.6676 51.6435 22.6752 51.6585 15.2825C51.6886 7.84461 45.7263 1.80699 38.2734 1.76182C30.8807 1.73171 24.828 7.76933 24.813 15.1921Z" fill="#4B4B4B"/>
<path d="M19.9046 28.8785C19.1066 30.6852 18.3839 32.4769 17.5558 34.2084C16.6524 36.1206 15.478 37.8671 14.0025 39.4029C13.4755 39.9449 12.813 40.0202 12.542 39.5083C12.3914 39.2072 12.3764 38.5898 12.5721 38.3791C15.3575 35.4431 16.8481 31.8145 18.1881 28.0955C18.5646 27.0566 18.7452 26.9362 19.8443 27.0566C22.3136 27.2975 24.5419 29.5711 24.4968 32.0704C24.4516 34.0127 24.0903 35.955 23.8494 37.8822C23.759 38.6501 23.6235 39.4179 23.5031 40.3063C23.7741 40.3063 24.015 40.3063 24.2408 40.3063C25.8217 40.2611 27.4027 40.1708 28.9836 40.1557C32.838 40.1105 35.5482 43.2724 34.8706 47.0666C34.434 49.5359 33.9522 51.99 33.4252 54.4442C32.8079 57.3501 30.5946 59.1268 27.6285 59.1418C24.9184 59.1569 22.2082 59.2623 19.4981 59.0967C17.4654 58.9762 15.4479 58.5245 13.4303 58.1782C12.8732 58.0879 12.5269 57.6814 12.6775 57.0791C12.8281 56.4919 13.3099 56.2811 13.867 56.4618C18.5344 57.9072 23.3224 57.2297 28.0802 57.3351C29.7063 57.3652 31.2119 56.1306 31.5883 54.4292C32.1755 51.8094 32.7326 49.1896 33.109 46.5396C33.5005 43.7994 31.6486 41.8872 28.8782 41.9625C26.8757 42.0076 24.8732 42.098 22.8556 42.1582C21.7565 42.1883 21.4704 41.8571 21.6361 40.758C21.9824 38.3489 22.3437 35.955 22.69 33.5459C23.0514 31.1068 22.0125 29.3753 19.9046 28.8785Z" fill="#4B4B4B"/>
<path d="M56.7476 28.7278C55.0312 29.0892 53.8417 30.3238 53.8869 31.98C53.917 33.6061 54.2181 35.2172 54.4139 36.8282C54.5795 38.123 54.7903 39.4028 54.9709 40.6977C55.1065 41.6914 54.7752 42.0227 53.7514 41.9775C51.7489 41.9022 49.7464 41.842 47.7288 41.7516C44.9735 41.6312 42.8656 44.1004 43.4829 46.7353C44.04 49.0992 44.4013 51.5082 44.8832 53.8871C45.2746 55.8143 46.8555 57.1543 48.843 57.1694C51.8994 57.1995 54.9709 57.2447 58.0274 57.1092C59.4276 57.049 60.8279 56.6123 62.2281 56.3564C62.454 56.3112 62.6648 56.2359 62.8756 56.1757C63.4176 56.0251 63.8392 56.2058 64.0048 56.7478C64.1704 57.2899 63.9446 57.7415 63.4025 57.8469C61.5958 58.2384 59.789 58.7804 57.9672 58.8858C54.9408 59.0665 51.8994 58.9762 48.858 58.9461C46.0576 58.9159 43.7991 57.1092 43.1968 54.3539C42.6397 51.8093 42.1278 49.2497 41.7213 46.6751C41.1492 43.0766 43.8292 39.99 47.4729 39.975C49.0538 39.9599 50.6347 40.0653 52.2156 40.1256C52.4716 40.1406 52.7125 40.1256 53.0889 40.1256C52.9534 39.0867 52.8179 38.0779 52.6673 37.0842C52.5017 35.9248 52.306 34.7504 52.1403 33.5911C51.7338 30.7755 52.8179 28.4719 55.0613 27.3878C55.2871 27.2824 55.513 27.177 55.7539 27.1018C57.6058 26.4995 57.9822 26.6952 58.6146 28.5171C59.8342 32.0252 61.3549 35.3677 63.9747 38.0779C64.3812 38.4995 64.5016 38.9813 64.05 39.4028C63.5832 39.8545 63.1014 39.7341 62.6648 39.2974C60.3762 36.9336 58.8555 34.0879 57.651 31.0616C57.3348 30.3238 57.0638 29.556 56.7476 28.7278Z" fill="#4B4B4B"/>
<path d="M10.4642 48.5571C10.4642 51.3727 10.4642 54.1732 10.4642 56.9887C10.4642 58.7353 9.42531 59.8946 7.66371 59.9548C6.03762 60.015 4.39647 60.015 2.77038 59.9548C1.08406 59.8946 0 58.7202 0 57.0188C0 51.3275 0 45.6362 0.0150564 39.9298C0.0150564 38.123 1.18946 36.9938 3.01128 36.9637C4.47175 36.9486 5.91717 36.9486 7.37764 36.9637C9.36509 36.9787 10.4642 38.0779 10.4793 40.1105C10.4793 42.9411 10.4642 45.7416 10.4642 48.5571ZM1.79171 48.4818C1.79171 51.2823 1.79171 54.0979 1.79171 56.8984C1.79171 57.6813 2.1079 58.133 2.77038 58.148C4.42658 58.1782 6.08279 58.1782 7.73899 58.133C8.32619 58.1179 8.68755 57.7415 8.68755 57.0941C8.68755 51.4028 8.68755 45.7115 8.67249 40.0201C8.67249 39.0866 8.31114 38.7554 7.3927 38.7403C5.99245 38.7253 4.5922 38.7403 3.1769 38.7403C2.1079 38.7403 1.77666 39.0565 1.77666 40.1105C1.79171 42.926 1.79171 45.7115 1.79171 48.4818Z" fill="#4B4B4B"/>
<path d="M66.0073 48.5421C66.0073 45.8319 66.0073 43.1218 66.0073 40.4116C66.0073 37.9876 67.0311 36.9637 69.4251 36.9637C70.7802 36.9637 72.1352 36.9487 73.4903 36.9637C75.2971 36.9788 76.4715 38.1231 76.4715 39.9298C76.4865 45.6212 76.4865 51.3125 76.4715 57.0038C76.4715 58.7353 75.3422 59.8946 73.6108 59.9398C72.0298 59.985 70.4489 59.985 68.868 59.9398C67.0763 59.8796 66.0073 58.7353 66.0073 56.9586C66.0073 54.1732 66.0073 51.3576 66.0073 48.5421ZM67.7839 48.4819C67.7839 51.2824 67.7839 54.0979 67.7839 56.8984C67.7839 57.8319 68.1001 58.1631 69.0487 58.1782C70.5091 58.1933 71.9546 58.1933 73.415 58.1782C74.3335 58.1631 74.6798 57.8018 74.6948 56.8984C74.6948 51.2824 74.6948 45.6663 74.6948 40.0503C74.6948 39.1168 74.3485 38.7705 73.4301 38.7705C72.0449 38.7554 70.6748 38.7705 69.2896 38.7705C68.0851 38.7705 67.799 39.0566 67.799 40.2912C67.7839 43.0164 67.7839 45.7567 67.7839 48.4819Z" fill="#4B4B4B"/>
<path d="M35.247 14.9061C37.0839 13.0692 38.8756 11.2775 40.6673 9.48575C40.9384 9.21473 41.1943 8.95877 41.4653 8.68776C43.0161 7.152 44.9283 7.04661 46.3286 8.4318C47.7288 9.81699 47.6385 11.7894 46.0726 13.3552C43.6786 15.7492 41.2847 18.1432 38.8907 20.5372C38.4691 20.9587 38.0475 21.3954 37.6109 21.8169C36.2558 23.172 34.3587 23.2322 32.9585 21.9073C31.9497 20.9587 30.9861 19.9801 30.0225 18.9863C28.6824 17.5861 28.6975 15.6589 30.0225 14.349C31.3474 13.024 33.2445 13.0391 34.6749 14.3791C34.8405 14.5296 35.0061 14.6802 35.247 14.9061ZM35.2621 21.1996C35.6837 20.9437 36.1053 20.7781 36.4064 20.4769C38.8154 18.098 41.2094 15.704 43.6033 13.295C44.1153 12.7831 44.6573 12.2862 45.1391 11.7442C45.8919 10.886 45.5456 9.66642 44.4766 9.32013C43.784 9.09428 43.2721 9.41047 42.8054 9.87721C40.5921 12.1056 38.3788 14.3189 36.1504 16.5321C35.4127 17.2699 35.0814 17.2549 34.3286 16.5171C34.0425 16.231 33.7715 15.9449 33.4704 15.6739C32.7326 14.9813 31.9346 14.9663 31.2872 15.6288C30.6699 16.2611 30.6849 17.0742 31.3625 17.7668C32.2809 18.7153 33.2295 19.6639 34.1931 20.5823C34.434 20.8533 34.8405 20.9738 35.2621 21.1996Z" fill="#4B4B4B"/>
</svg>
